<?xml version="1.0" encoding="UTF-8"?>
<svg version="1.1" xmlns="http://www.w3.org/2000/svg" width="335" height="335">
<path d="M0 0 C110.55 0 221.1 0 335 0 C335 110.55 335 221.1 335 335 C224.45 335 113.9 335 0 335 C0 224.45 0 113.9 0 0 Z " fill="#F4EBEB" transform="translate(0,0)"/>
<path d="M0 0 C36.3 0 72.6 0 110 0 C110 36.3 110 72.6 110 110 C73.7 110 37.4 110 0 110 C0 70 0 70 2 68 C2.99 68 3.98 68 5 68 C4.67 69.32 4.34 70.64 4 72 C5.485 71.01 5.485 71.01 7 70 C7.33 70.474375 7.66 70.94875 8 71.4375 C11.02196628 73.79841116 14.26634649 74.14765861 18 74 C21.41974919 72.71005207 21.41974919 72.71005207 24 71 C24.495 71.99 24.495 71.99 25 73 C27.32156597 73.40729228 29.6568787 73.74438677 32 74 C32 72.35 32 70.7 32 69 C33.32 70.65 34.64 72.3 36 74 C35.01 74 34.02 74 33 74 C33.33 74.33 33.66 74.66 34 75 C35.91424457 74.8981629 35.91424457 74.8981629 38.0625 74.5625 C39.361875 74.376875 40.66125 74.19125 42 74 C42 76.31 42 78.62 42 81 C50.91 81 59.82 81 69 81 C69 77.7 69 74.4 69 71 C63.39 71 57.78 71 52 71 C52 55.82 52 40.64 52 25 C48.7 25 45.4 25 42 25 C42 35.23 42 45.46 42 56 C39.69 56.66 37.38 57.32 35 58 C34.01 58.33 33.02 58.66 32 59 C32 58.01 32 57.02 32 56 C31.34 55.67 30.68 55.34 30 55 C30 53.35 30 51.7 30 50 C27.525 50.495 27.525 50.495 25 51 C25.33 52.65 25.66 54.3 26 56 C25.34 56 24.68 56 24 56 C23.855625 56.639375 23.71125 57.27875 23.5625 57.9375 C23 60 23 60 22 61 C20.47480724 60.91062197 18.95318071 60.75462854 17.4375 60.5625 C16.19806641 60.40974609 16.19806641 60.40974609 14.93359375 60.25390625 C14.29550781 60.17011719 13.65742188 60.08632812 13 60 C13 60.99 13 61.98 13 63 C14.093125 63.103125 15.18625 63.20625 16.3125 63.3125 C20 64 20 64 22 65.3125 C23 67 23 67 22.8125 69.0625 C22 71 22 71 20 73 C16.94324049 73.56060261 14.05906208 73.53696302 11 73 C8.375 70.75 8.375 70.75 7 68 C7.25 65.6875 7.25 65.6875 8 64 C8.721875 64.804375 9.44375 65.60875 10.1875 66.4375 C13.02515689 69.02292072 14.27166147 69.68042813 18 70 C18 69.01 18 68.02 18 67 C16.329375 66.814375 16.329375 66.814375 14.625 66.625 C11 66 11 66 9 64 C8.75 61.5 8.75 61.5 9 59 C9.66 58.34 10.32 57.68 11 57 C9.35 58.32 7.7 59.64 6 61 C5.67 60.67 5.34 60.34 5 60 C5.33 61.98 5.66 63.96 6 66 C4.02 66 2.04 66 0 66 C0 44.22 0 22.44 0 0 Z " fill="#FDF5F5" transform="translate(115,68)"/>
<path d="M0 0 C36.3 0 72.6 0 110 0 C106.63258999 4.20926251 103.92201891 6.73350929 99.5 9.5 C98.88415039 9.88945801 98.26830078 10.27891602 97.63378906 10.68017578 C88.86019629 16.0909339 79.87992994 19.03602102 70 22 C89.8 22.495 89.8 22.495 110 23 C106.61342564 27.23321795 103.89051244 29.73271452 99.4375 32.5 C98.81834717 32.88945801 98.19919434 33.27891602 97.5612793 33.68017578 C88.77230639 39.10669644 80.02453828 42.52641263 70 45 C80.89 45.495 80.89 45.495 92 46 C85.32511144 54.3436107 76.33970476 58.67043047 66 61 C65.20722656 61.18304688 64.41445312 61.36609375 63.59765625 61.5546875 C49.53162898 63.96600646 37.06135261 60.12716291 25 53 C22.43448891 51.12787029 20.27992871 49.22811215 18 47 C18 46.67 18 46.34 18 46 C28.395 45.505 28.395 45.505 39 45 C35.6896875 43.9790625 35.6896875 43.9790625 32.3125 42.9375 C20.60094243 39.1199063 10.07178567 33.43210847 1 25 C0.67 24.34 0.34 23.68 0 23 C13.53 22.67 27.06 22.34 41 22 C37.04 21.01 33.08 20.02 29 19 C26.18693908 17.84349091 23.60634463 16.71432089 20.9375 15.3125 C20.26702637 14.96872314 19.59655273 14.62494629 18.90576172 14.27075195 C12.0133517 10.6416501 4.38056455 6.57084683 0 0 Z " fill="#EA2C34" transform="translate(115,179)"/>
<path d="M0 0 C7.24992007 7.24992007 12.69570236 14.65274171 16.875 24 C17.16101074 24.62753174 17.44702148 25.25506348 17.74169922 25.90161133 C20.21198428 31.70789397 20.80726808 36.43997445 22 43 C22.33 28.81 22.66 14.62 23 0 C34.88921916 11.88921916 41.99319331 25.46256322 45 42 C45.33 34.08 45.66 26.16 46 18 C56.64775583 28.64775583 61.3484601 39.22336 61.5625 54.3125 C61.45629588 67.75507723 58.14229121 79.70950634 49 90 C48.01 90.66 47.02 91.32 46 92 C45.67 84.08 45.34 76.16 45 68 C44.505 70.145 44.01 72.29 43.5 74.5 C40.24676128 87.25693912 34.20399579 99.47191985 25 109 C24.01 109.495 24.01 109.495 23 110 C22.67 95.81 22.34 81.62 22 67 C20.68 72.28 19.36 77.56 18 83 C16.84294067 85.96573881 15.78661795 88.55341914 14.3125 91.3125 C13.97726318 91.96347656 13.64202637 92.61445313 13.29663086 93.28515625 C9.98612585 99.46943222 5.88804148 104.95151952 1 110 C0.67 110 0.34 110 0 110 C0 73.7 0 37.4 0 0 Z " fill="#E92B34" transform="translate(226,68)"/>
<path d="M0 0 C0.33 0 0.66 0 1 0 C1.495 20.295 1.495 20.295 2 41 C3.485 35.06 3.485 35.06 5 29 C6.13509534 26.20591915 7.24154531 23.6489027 8.625 21 C8.96547363 20.33355469 9.30594727 19.66710937 9.65673828 18.98046875 C13.05918645 12.53015469 17.07331321 6.39686852 22 1 C22.66 1 23.32 1 24 1 C24 36.97 24 72.94 24 110 C11.56141686 97.56141686 6.87998123 86.07993429 2 69 C1.67 82.53 1.34 96.06 1 110 C-3.20897109 106.63282313 -5.73414061 103.92222235 -8.5 99.5 C-8.88945801 98.8827002 -9.27891602 98.26540039 -9.68017578 97.62939453 C-15.43629258 88.27900389 -18.58560098 78.67418513 -21 68 C-21.33 75.92 -21.66 83.84 -22 92 C-30.63583663 85.0913307 -35.05973154 75.85678306 -37 65 C-38.54406304 48.44605371 -36.49518919 34.41819145 -26 21 C-24.68 20.01 -23.36 19.02 -22 18 C-21.67 25.92 -21.34 33.84 -21 42 C-20.67 40.185 -20.34 38.37 -20 36.5 C-16.9042496 23.20563263 -9.70956309 9.70956309 0 0 Z " fill="#E92B34" transform="translate(90,68)"/>
<path d="M0 0 C3.08144094 1.97986302 5.76497868 4.04161835 8.42578125 6.55859375 C8.42578125 6.88859375 8.42578125 7.21859375 8.42578125 7.55859375 C0.50578125 7.88859375 -7.41421875 8.21859375 -15.57421875 8.55859375 C-13.03734375 9.11546875 -13.03734375 9.11546875 -10.44921875 9.68359375 C4.20234773 13.39394333 15.76291784 19.89573034 26.42578125 30.55859375 C12.23578125 30.88859375 -1.95421875 31.21859375 -16.57421875 31.55859375 C-11.29421875 32.87859375 -6.01421875 34.19859375 -0.57421875 35.55859375 C8.07588022 39.41115884 15.20353812 43.5161431 22.42578125 49.55859375 C23.91078125 50.54859375 23.91078125 50.54859375 25.42578125 51.55859375 C25.42578125 52.21859375 25.42578125 52.87859375 25.42578125 53.55859375 C-10.21421875 53.55859375 -45.85421875 53.55859375 -82.57421875 53.55859375 C-82.57421875 52.89859375 -82.57421875 52.23859375 -82.57421875 51.55859375 C-70.28307999 40.50557336 -55.77845285 34.25929943 -39.57421875 31.55859375 C-61.35421875 31.06359375 -61.35421875 31.06359375 -83.57421875 30.55859375 C-71.77432145 18.75869645 -58.05162375 11.30482792 -41.57421875 8.55859375 C-49.49421875 8.22859375 -57.41421875 7.89859375 -65.57421875 7.55859375 C-47.67385921 -10.34176579 -21.73528419 -12.61338489 0 0 Z " fill="#EA2B34" transform="translate(198.57421875,13.44140625)"/>
<path d="M0 0 C1.65 0.33 3.3 0.66 5 1 C5 7.27 5 13.54 5 20 C2.69 20 0.38 20 -2 20 C-2 19.67 -2 19.34 -2 19 C-0.02 19 1.96 19 4 19 C4 13.39 4 7.78 4 2 C2.68 2 1.36 2 0 2 C0.04125 3.175625 0.0825 4.35125 0.125 5.5625 C0.13352064 10.35961753 -0.84345849 14.68691698 -3 19 C-3.08559118 21.17824961 -3.10713412 23.35915255 -3.09765625 25.5390625 C-3.09443359 26.84101563 -3.09121094 28.14296875 -3.08789062 29.484375 C-3.07953466 30.86458399 -3.07106971 32.24479232 -3.0625 33.625 C-3.05748501 35.01301926 -3.0529221 36.40104022 -3.04882812 37.7890625 C-3.03700976 41.19275132 -3.02053434 44.59635439 -3 48 C-2.34 48 -1.68 48 -1 48 C-1.02320313 47.25234375 -1.04640625 46.5046875 -1.0703125 45.734375 C-1.08835937 44.74953125 -1.10640625 43.7646875 -1.125 42.75 C-1.14820313 41.77546875 -1.17140625 40.8009375 -1.1953125 39.796875 C-0.99862781 36.9803502 -0.44568916 35.39050964 1 33 C1.40843329 39.29289812 0.77507252 45.20381063 -0.375 51.375 C-0.50108643 52.06464844 -0.62717285 52.75429688 -0.75708008 53.46484375 C-1.44152468 56.95581012 -2.35265177 59.86287598 -4 63 C-4 63.99 -4 64.98 -4 66 C-4.99 67.32 -5.98 68.64 -7 70 C-15.58 70 -24.16 70 -33 70 C-33.33 52.84 -33.66 35.68 -34 18 C-34.99 18 -35.98 18 -37 18 C-37.433125 18.515625 -37.86625 19.03125 -38.3125 19.5625 C-38.869375 20.036875 -39.42625 20.51125 -40 21 C-43.1875 20.6875 -43.1875 20.6875 -46 20 C-45.54177532 23.46941546 -45.10868317 26.67395049 -44 30 C-43.76423956 34.24606525 -43.81481585 38.49809081 -43.8125 42.75 C-43.80025391 43.91789062 -43.78800781 45.08578125 -43.77539062 46.2890625 C-43.75097085 60.64789035 -43.75097085 60.64789035 -47.875 64.9609375 C-48.926875 65.66089844 -48.926875 65.66089844 -50 66.375 C-50.70125 66.85710937 -51.4025 67.33921875 -52.125 67.8359375 C-60.06538772 72.76559487 -60.19118852 70 -75 70 C-75 53.83 -75 37.66 -75 21 C-75.66 20.67 -76.32 20.34 -77 20 C-78 19 -79 18 -80 17 C-80.66 16.67 -81.32 16.34 -82 16 C-78.79663178 13.16625119 -76.21912747 12.4794463 -72 12 C-72 11.34 -72 10.68 -72 10 C-65.82191096 5.92246123 -65.82191096 5.92246123 -61.6875 6.3125 C-60.800625 6.539375 -59.91375 6.76625 -59 7 C-58.34 6.67 -57.68 6.34 -57 6 C-57 6.99 -57 7.98 -57 9 C-56.34 9 -55.68 9 -55 9 C-55 9.66 -55 10.32 -55 11 C-54.34 11 -53.68 11 -53 11 C-53 9.35 -53 7.7 -53 6 C-52.34 5.67 -51.68 5.34 -51 5 C-49.74335022 7.90600261 -49 9.79604584 -49 13 C-48.01 12.67 -47.02 12.34 -46 12 C-44.77479736 8.99152582 -44.77479736 8.99152582 -44 6 C-43.67 6 -43.34 6 -43 6 C-42.92572162 9.34252724 -42.93453047 11.8035914 -44 15 C-43.34 15 -42.68 15 -42 15 C-40.2856382 13.04072937 -38.61594832 11.04119788 -37 9 C-35 12 -35 12 -35 14 C-34.34 14 -33.68 14 -33 14 C-31.92474806 11.34771188 -30.90543849 8.71631546 -30 6 C-28.35 6 -26.7 6 -25 6 C-25 7.32 -25 8.64 -25 10 C-23.68 9.67 -22.36 9.34 -21 9 C-21.495 6.525 -21.495 6.525 -22 4 C-21.01 4.33 -20.02 4.66 -19 5 C-18.505 4.34 -18.01 3.68 -17.5 3 C-14.4242647 0.53941176 -12.73436951 0.4816059 -8.90625 0.66015625 C-6.34231423 1.11725136 -4.82509684 2.17490316 -3 4 C-2.01 2.68 -1.02 1.36 0 0 Z " fill="#DBD4D4" transform="translate(322,248)"/>
<path d="M0 0 C1.17369141 0.10054687 1.17369141 0.10054687 2.37109375 0.203125 C4.92212232 0.83974532 5.89857581 1.75971125 7.5625 3.75 C8.2225 2.43 8.8825 1.11 9.5625 -0.25 C28.33173077 -0.25 28.33173077 -0.25 32.5625 0.75 C33.243125 1.9875 33.243125 1.9875 33.9375 3.25 C34.47375 4.075 35.01 4.9 35.5625 5.75 C37.4769337 6.18235041 37.4769337 6.18235041 39.6875 6.25 C46.04599817 6.61304639 50.84340695 9.4728238 55.6618042 13.50811768 C57.99507415 16.26022386 58.05053169 17.50667252 58.01660156 21.06933594 C58.01629944 22.13013367 58.01599731 23.1909314 58.01568604 24.28387451 C57.99504089 25.42253967 57.97439575 26.56120483 57.953125 27.734375 C57.94746521 28.90510559 57.94180542 30.07583618 57.93597412 31.28204346 C57.91358125 35.021778 57.8633768 38.76055497 57.8125 42.5 C57.79243889 45.03514242 57.77418744 47.57029985 57.7578125 50.10546875 C57.71370648 56.32068153 57.64465648 62.53517841 57.5625 68.75 C53.9325 68.75 50.3025 68.75 46.5625 68.75 C46.2325 58.52 45.9025 48.29 45.5625 37.75 C43.9125 39.73 42.2625 41.71 40.5625 43.75 C38.85365995 42.12660195 37.18803283 40.45680947 35.5625 38.75 C35.5625 38.09 35.5625 37.43 35.5625 36.75 C34.9025 36.75 34.2425 36.75 33.5625 36.75 C33.5625 47.31 33.5625 57.87 33.5625 68.75 C29.9325 68.75 26.3025 68.75 22.5625 68.75 C22.5625 52.25 22.5625 35.75 22.5625 18.75 C21.2425 18.75 19.9225 18.75 18.5625 18.75 C18.0675 16.77 18.0675 16.77 17.5625 14.75 C17.335625 15.389375 17.10875 16.02875 16.875 16.6875 C15.5625 18.75 15.5625 18.75 12.9375 19.5 C12.15375 19.5825 11.37 19.665 10.5625 19.75 C10.2325 22.39 9.9025 25.03 9.5625 27.75 C4.9425 28.08 0.3225 28.41 -4.4375 28.75 C-4.7675 31.06 -5.0975 33.37 -5.4375 35.75 C-3.93896484 35.73259766 -3.93896484 35.73259766 -2.41015625 35.71484375 C-1.11980469 35.70582031 0.17054687 35.69679688 1.5 35.6875 C2.78777344 35.67589844 4.07554688 35.66429687 5.40234375 35.65234375 C8.5625 35.75 8.5625 35.75 9.5625 36.75 C9.70560287 40.4191577 9.60471662 44.07715441 9.5625 47.75 C4.6125 47.75 -0.3375 47.75 -5.4375 47.75 C-5.4375 54.68 -5.4375 61.61 -5.4375 68.75 C-9.0675 68.75 -12.6975 68.75 -16.4375 68.75 C-16.7675 59.18 -17.0975 49.61 -17.4375 39.75 C-18.0975 42.06 -18.7575 44.37 -19.4375 46.75 C-21.29526765 43.61501708 -21.63890476 41.37528568 -21.4375 37.75 C-21.7675 37.75 -22.0975 37.75 -22.4375 37.75 C-22.46438151 36.10425434 -22.48384123 34.45838587 -22.5 32.8125 C-22.51160156 31.89597656 -22.52320313 30.97945313 -22.53515625 30.03515625 C-22.4375 27.75 -22.4375 27.75 -21.4375 26.75 C-21.623125 26.13125 -21.80875 25.5125 -22 24.875 C-22.144375 24.17375 -22.28875 23.4725 -22.4375 22.75 C-21.4475 21.265 -21.4475 21.265 -20.4375 19.75 C-20.4375 18.76 -20.4375 17.77 -20.4375 16.75 C-20.4375 13.75 -20.4375 13.75 -18.8125 12.0625 C-15.85551336 10.42837581 -13.76570054 10.52307724 -10.4375 10.75 C-10.4375 10.09 -10.4375 9.43 -10.4375 8.75 C-11.0975 8.42 -11.7575 8.09 -12.4375 7.75 C-11.48328192 6.60073734 -10.52397955 5.45569459 -9.5625 4.3125 C-9.02882813 3.67441406 -8.49515625 3.03632813 -7.9453125 2.37890625 C-5.35542171 -0.41898095 -3.64340882 -0.35895653 0 0 Z " fill="#E3DDDD" transform="translate(77.4375,249.25)"/>
<path d="M0 0 C20 0 20 0 26 4 C31.87850829 10.5140227 31.18293232 16.36373059 31.1875 24.75 C31.19974609 25.91789062 31.21199219 27.08578125 31.22460938 28.2890625 C31.24902915 42.64789035 31.24902915 42.64789035 27.125 46.9609375 C26.42375 47.42757812 25.7225 47.89421875 25 48.375 C24.29875 48.85710937 23.5975 49.33921875 22.875 49.8359375 C14.93461228 54.76559487 14.80881148 52 0 52 C0 34.84 0 17.68 0 0 Z " fill="#D6272F" transform="translate(247,266)"/>
<path d="M0 0 C4.68239485 1.74442161 7.76224871 4.20720563 11 8 C12.88116878 13.24828426 12.22461812 19.2422514 12.24023438 24.73461914 C12.2499201 26.79549842 12.28096078 28.85537087 12.3125 30.91601562 C12.3622035 43.57176958 12.3622035 43.57176958 9 49 C3.75025246 53.15605014 -0.32281861 54.54730995 -7 54 C-12.53940214 52.28443889 -15.28427816 50.15966603 -18.14949036 44.99327087 C-19.5319032 41.75342137 -19.49458861 38.55069332 -19.390625 35.09765625 C-19.38496521 34.3750914 -19.37930542 33.65252655 -19.37347412 32.9080658 C-19.35128257 30.62550414 -19.30112549 28.34457802 -19.25 26.0625 C-19.22991244 24.50458014 -19.21166564 22.9466354 -19.1953125 21.38867188 C-19.1514753 17.5918285 -19.08257421 13.79619043 -19 10 C-18.01 9.67 -17.02 9.34 -16 9 C-15.87625 8.401875 -15.7525 7.80375 -15.625 7.1875 C-14.70730432 3.97556511 -12.66391612 2.88423336 -10 1 C-6.79855229 -0.60072386 -3.48208592 -0.35797145 0 0 Z " fill="#DC2830" transform="translate(224,265)"/>
<path d="M0 0 C3.96 0 7.92 0 12 0 C15.25 3.5 15.25 3.5 17 7 C19.33524782 4.74259377 21.18705073 2.7194239 23 0 C26.96 0 30.92 0 35 0 C35 17.16 35 34.32 35 52 C31.37 52 27.74 52 24 52 C23.505 36.655 23.505 36.655 23 21 C21.35 22.98 19.7 24.96 18 27 C16.29115995 25.37660195 14.62553283 23.70680947 13 22 C13 21.34 13 20.68 13 20 C12.34 20 11.68 20 11 20 C11 30.56 11 41.12 11 52 C7.37 52 3.74 52 0 52 C0 34.84 0 17.68 0 0 Z " fill="#E52831" transform="translate(100,266)"/>
<path d="M0 0 C4.86634517 2.57089934 9.22361005 5.67083015 11 11 C11.09182942 12.53949329 11.13002352 14.08277855 11.125 15.625 C11.12886719 16.81996094 11.12886719 16.81996094 11.1328125 18.0390625 C11 20 11 20 10 21 C8.48071962 21.07179964 6.95832518 21.08392007 5.4375 21.0625 C4.61121094 21.05347656 3.78492188 21.04445313 2.93359375 21.03515625 C1.97646484 21.01775391 1.97646484 21.01775391 1 21 C-1 14.25 -1 14.25 -1 12 C-4.29075996 12.37904208 -4.29075996 12.37904208 -7 14 C-7.08758003 15.99964982 -7.10696576 18.0023611 -7.09765625 20.00390625 C-7.09443359 21.21884766 -7.09121094 22.43378906 -7.08789062 23.68554688 C-7.07951172 24.96494141 -7.07113281 26.24433594 -7.0625 27.5625 C-7.05798828 28.84576172 -7.05347656 30.12902344 -7.04882812 31.45117188 C-7.03699545 34.63416022 -7.02051068 37.81705762 -7 41 C-5.68 41.33 -4.36 41.66 -3 42 C-0.87491756 38.81237635 -0.4979837 36.73487777 0 33 C3.63 33 7.26 33 11 33 C11.58916827 43.75232093 11.58916827 43.75232093 8.39453125 48.52734375 C4.76461514 52.3606165 0.5169699 53.81691743 -4.625 54.4375 C-9.533111 53.80126339 -12.6376696 52.32340667 -16.1875 48.875 C-21.03477468 41.18621947 -21.40958262 33.84042273 -20.9375 24.9375 C-20.90978516 23.90044922 -20.88207031 22.86339844 -20.85351562 21.79492188 C-20.50399795 14.03169123 -19.20108039 7.97243179 -13.375 2.5625 C-8.90031335 -0.3813728 -5.29173465 -0.65142771 0 0 Z " fill="#E52831" transform="translate(184,265)"/>
<path d="M0 0 C8.58 0 17.16 0 26 0 C26 3.3 26 6.6 26 10 C25 11 25 11 21.83984375 11.09765625 C19.90818359 11.08025391 19.90818359 11.08025391 17.9375 11.0625 C16.64714844 11.05347656 15.35679687 11.04445313 14.02734375 11.03515625 C13.02832031 11.02355469 12.02929688 11.01195312 11 11 C11 13.97 11 16.94 11 20 C15.95 20 20.9 20 26 20 C26.09765625 27.71484375 26.09765625 27.71484375 26 30 C25 31 25 31 21.83984375 31.09765625 C20.55207031 31.08605469 19.26429688 31.07445312 17.9375 31.0625 C16.64714844 31.05347656 15.35679687 31.04445313 14.02734375 31.03515625 C13.02832031 31.02355469 12.02929688 31.01195312 11 31 C11 34.3 11 37.6 11 41 C12.49853516 40.98259766 12.49853516 40.98259766 14.02734375 40.96484375 C15.31769531 40.95582031 16.60804688 40.94679688 17.9375 40.9375 C19.22527344 40.92589844 20.51304687 40.91429687 21.83984375 40.90234375 C25 41 25 41 26 42 C26 45.3 26 48.6 26 52 C17.42 52 8.84 52 0 52 C0 34.84 0 17.68 0 0 Z " fill="#D0252D" transform="translate(289,266)"/>
<path d="M0 0 C8.58 0 17.16 0 26 0 C26 3.63 26 7.26 26 11 C21.38 11.33 16.76 11.66 12 12 C11.67 14.31 11.34 16.62 11 19 C11.99902344 18.98839844 12.99804688 18.97679687 14.02734375 18.96484375 C15.31769531 18.95582031 16.60804687 18.94679688 17.9375 18.9375 C19.22527344 18.92589844 20.51304688 18.91429687 21.83984375 18.90234375 C25 19 25 19 26 20 C26.14310287 23.6691577 26.04221662 27.32715441 26 31 C21.05 31 16.1 31 11 31 C11 37.93 11 44.86 11 52 C7.37 52 3.74 52 0 52 C0 34.84 0 17.68 0 0 Z " fill="#CE262E" transform="translate(61,266)"/>
<path d="M0 0 C0.9075 0.00257813 1.815 0.00515625 2.75 0.0078125 C4.11125 0.00394531 4.11125 0.00394531 5.5 0 C7.75 0.1328125 7.75 0.1328125 8.75 1.1328125 C10.22642459 14.27481406 10.62049471 28.03934952 8.75 41.1328125 C13.7 41.1328125 18.65 41.1328125 23.75 41.1328125 C23.75 44.7628125 23.75 48.3928125 23.75 52.1328125 C14.84 52.1328125 5.93 52.1328125 -3.25 52.1328125 C-3.27290278 44.88790036 -3.29283177 37.64311281 -3.30493164 30.39819336 C-3.30997356 27.93139217 -3.31680691 25.46459398 -3.32543945 22.99780273 C-3.33751125 19.46076721 -3.34322956 15.92377105 -3.34765625 12.38671875 C-3.35281754 11.27631729 -3.35797882 10.16591583 -3.36329651 9.02186584 C-3.36337204 8.00088303 -3.36344757 6.97990021 -3.36352539 5.92797852 C-3.365746 5.02418961 -3.36796661 4.1204007 -3.37025452 3.18922424 C-3.20017965 0.2808598 -2.91077886 0.17181681 0 0 Z " fill="#E82932" transform="translate(27.25,265.8671875)"/>
<path d="M0 0 C3.3 0 6.6 0 10 0 C10 15.18 10 30.36 10 46 C15.61 46 21.22 46 27 46 C27 49.3 27 52.6 27 56 C18.09 56 9.18 56 0 56 C0 37.52 0 19.04 0 0 Z " fill="#E72A33" transform="translate(157,93)"/>
<path d="M0 0 C0.33 1.32 0.66 2.64 1 4 C1.66 3.01 2.32 2.02 3 1 C4.32 1 5.64 1 7 1 C8.35648418 0.80733238 9.71083251 0.59897573 11.0625 0.375 C15 0 15 0 18 2 C18.96070434 4.88211302 19.10581883 6.69850044 19.0625 9.6875 C19.05347656 10.49574219 19.04445313 11.30398438 19.03515625 12.13671875 C19.02355469 12.75160156 19.01195313 13.36648438 19 14 C19.99 13.34 20.98 12.68 22 12 C24.6875 12.375 24.6875 12.375 27 13 C27.495 14.485 27.495 14.485 28 16 C27.34 16.99 26.68 17.98 26 19 C21.125 18.125 21.125 18.125 20 17 C19.67 17.66 19.34 18.32 19 19 C18.01 19 17.02 19 16 19 C15.67 19.99 15.34 20.98 15 22 C14.67 20.68 14.34 19.36 14 18 C10.7 18 7.4 18 4 18 C3.98018066 18.70084717 3.96036133 19.40169434 3.93994141 20.1237793 C3.84443834 23.31205162 3.73486129 26.49969147 3.625 29.6875 C3.57859375 31.34168945 3.57859375 31.34168945 3.53125 33.02929688 C3.47324219 34.6293457 3.47324219 34.6293457 3.4140625 36.26171875 C3.3826416 37.24100342 3.3512207 38.22028809 3.31884766 39.22924805 C2.98426025 42.13677674 2.14620181 44.3225442 1 47 C0.72123482 49.0959986 0.51411256 51.20262611 0.375 53.3125 C0.30023438 54.38113281 0.22546875 55.44976562 0.1484375 56.55078125 C0.09945313 57.35902344 0.05046875 58.16726563 0 59 C-1.65 58.67 -3.3 58.34 -5 58 C-5.90483637 52.63510405 -6.12303662 47.49682543 -6.0625 42.0625 C-6.05798828 41.28326172 -6.05347656 40.50402344 -6.04882812 39.70117188 C-6.03716908 37.80074732 -6.01923877 35.90036294 -6 34 C-6.99 34.495 -6.99 34.495 -8 35 C-7.38545304 31.00544473 -5.29353263 28.25533664 -3 25 C-3.99 25 -4.98 25 -6 25 C-6.33 25.66 -6.66 26.32 -7 27 C-9.475 26.01 -9.475 26.01 -12 25 C-12 24.67 -12 24.34 -12 24 C-10.3603125 23.5359375 -10.3603125 23.5359375 -8.6875 23.0625 C-6.44592006 22.41662103 -4.2130649 21.7376883 -2 21 C-1.67 14.4 -1.34 7.8 -1 1 C-2.32 1 -3.64 1 -5 1 C-5.33 1.99 -5.66 2.98 -6 4 C-6.66 3.01 -7.32 2.02 -8 1 C-5.29120665 -0.35439668 -2.99066732 -0.06501451 0 0 Z " fill="#E8E1E1" transform="translate(21,249)"/>
<path d="M0 0 C1 2 1 2 1.125 4.4375 C1.81304172 7.42579448 1.81304172 7.42579448 5.5625 8.8125 C6.696875 9.204375 7.83125 9.59625 9 10 C8.67 11.65 8.34 13.3 8 15 C-1.33333333 15 -10.66666667 15 -20 15 C-20.433125 15.515625 -20.86625 16.03125 -21.3125 16.5625 C-21.869375 17.036875 -22.42625 17.51125 -23 18 C-26.1875 17.6875 -26.1875 17.6875 -29 17 C-29.66 18.32 -30.32 19.64 -31 21 C-31.78375 20.360625 -32.5675 19.72125 -33.375 19.0625 C-36.73367047 16.42354463 -38.39298341 15.86866529 -42.5703125 15.68359375 C-43.46621094 15.64169922 -44.36210937 15.59980469 -45.28515625 15.55664062 C-46.22230469 15.51732422 -47.15945313 15.47800781 -48.125 15.4375 C-49.06988281 15.39431641 -50.01476562 15.35113281 -50.98828125 15.30664062 C-53.32537092 15.20040928 -55.6625683 15.09836824 -58 15 C-58 15.99 -58 16.98 -58 18 C-60.1415475 16.92922625 -61.31968903 15.68031097 -63 14 C-63.66 13.67 -64.32 13.34 -65 13 C-61.79663178 10.16625119 -59.21912747 9.4794463 -55 9 C-55 8.34 -55 7.68 -55 7 C-48.82191096 2.92246123 -48.82191096 2.92246123 -44.6875 3.3125 C-43.800625 3.539375 -42.91375 3.76625 -42 4 C-41.34 3.67 -40.68 3.34 -40 3 C-40 3.99 -40 4.98 -40 6 C-39.34 6 -38.68 6 -38 6 C-38 6.66 -38 7.32 -38 8 C-37.34 8 -36.68 8 -36 8 C-36 6.35 -36 4.7 -36 3 C-35.34 2.67 -34.68 2.34 -34 2 C-32.74335022 4.90600261 -32 6.79604584 -32 10 C-31.01 9.67 -30.02 9.34 -29 9 C-27.77479736 5.99152582 -27.77479736 5.99152582 -27 3 C-26.67 3 -26.34 3 -26 3 C-25.92572162 6.34252724 -25.93453047 8.8035914 -27 12 C-26.34 12 -25.68 12 -25 12 C-23.2856382 10.04072937 -21.61594832 8.04119788 -20 6 C-18 9 -18 9 -18 11 C-17.34 11 -16.68 11 -16 11 C-14.92474806 8.34771188 -13.90543849 5.71631546 -13 3 C-11.35 3 -9.7 3 -8 3 C-8 4.32 -8 5.64 -8 7 C-6.68 6.67 -5.36 6.34 -4 6 C-4.495 3.525 -4.495 3.525 -5 1 C-4.01 1.33 -3.02 1.66 -2 2 C-1.34 1.34 -0.68 0.68 0 0 Z " fill="#C6C1C1" transform="translate(305,251)"/>
<path d="M0 0 C0.66 1.32 1.32 2.64 2 4 C3.32 3.67 4.64 3.34 6 3 C6.33 4.32 6.66 5.64 7 7 C8.32 7 9.64 7 11 7 C11.33 8.32 11.66 9.64 12 11 C12.433125 10.566875 12.86625 10.13375 13.3125 9.6875 C14.875 8.125 16.4375 6.5625 18 5 C20 8 20 8 20 12 C20.99 11.67 21.98 11.34 23 11 C23.33 7.7 23.66 4.4 24 1 C24.33 1 24.66 1 25 1 C25.495 3.475 25.495 3.475 26 6 C26.66 4.35 27.32 2.7 28 1 C28.33 1 28.66 1 29 1 C29 4.63 29 8.26 29 12 C30.98 10.35 32.96 8.7 35 7 C35 7.66 35 8.32 35 9 C35.66 9 36.32 9 37 9 C37.33 8.01 37.66 7.02 38 6 C38.495 7.485 38.495 7.485 39 9 C40.97536745 8.65213292 40.97536745 8.65213292 43 8 C43.33 7.34 43.66 6.68 44 6 C61.07744875 6.41002278 61.07744875 6.41002278 67 11 C67 11.33 67 11.66 67 12 C65.78763672 11.98646484 65.78763672 11.98646484 64.55078125 11.97265625 C58.37427862 11.93370494 58.37427862 11.93370494 53.08984375 14.625 C51.56245961 16.74138993 51.56245961 16.74138993 50 20 C45.125 15.25 45.125 15.25 44 13 C41.1840151 12.53101037 41.1840151 12.53101037 37.9375 12.375 C36.83277344 12.30023438 35.72804687 12.22546875 34.58984375 12.1484375 C33.73519531 12.09945313 32.88054687 12.05046875 32 12 C32 12.66 32 13.32 32 14 C30.68 14 29.36 14 28 14 C27.505 12.02 27.505 12.02 27 10 C26.79375 10.639375 26.5875 11.27875 26.375 11.9375 C25 14 25 14 21.875 14.75 C20.451875 14.87375 20.451875 14.87375 19 15 C19 14.01 19 13.02 19 12 C10.42 12 1.84 12 -7 12 C-6.92099002 19.10525652 -6.92099002 19.10525652 -6.81982422 26.21020508 C-6.81233154 27.53894653 -6.81233154 27.53894653 -6.8046875 28.89453125 C-6.79421387 29.80050049 -6.78374023 30.70646973 -6.77294922 31.63989258 C-7 34 -7 34 -9 37 C-9.38499891 38.65549531 -9.72793135 40.3222433 -10 42 C-11.85776765 38.86501708 -12.20140476 36.62528568 -12 33 C-12.33 33 -12.66 33 -13 33 C-13.02688151 31.35425434 -13.04634123 29.70838587 -13.0625 28.0625 C-13.07410156 27.14597656 -13.08570313 26.22945313 -13.09765625 25.28515625 C-13 23 -13 23 -12 22 C-12.185625 21.38125 -12.37125 20.7625 -12.5625 20.125 C-12.706875 19.42375 -12.85125 18.7225 -13 18 C-12.01 16.515 -12.01 16.515 -11 15 C-11 14.01 -11 13.02 -11 12 C-11 9 -11 9 -9.375 7.3125 C-6.41801336 5.67837581 -4.32820054 5.77307724 -1 6 C-1 5.34 -1 4.68 -1 4 C-1.66 3.67 -2.32 3.34 -3 3 C-2.01 2.01 -1.02 1.02 0 0 Z " fill="#B2ACAC" transform="translate(68,254)"/>
<path d="M0 0 C0 0.99 0 1.98 0 3 C0.495 3.99 0.495 3.99 1 5 C1.99 4.34 2.98 3.68 4 3 C6.6875 2.875 6.6875 2.875 9 3 C9.99 5.475 9.99 5.475 11 8 C9.7315625 7.814375 9.7315625 7.814375 8.4375 7.625 C4.10747518 8.09736634 2.62134036 9.70018613 -0.38671875 12.6875 C-2 14 -2 14 -5 14 C-6.67099977 14.31088368 -8.33871537 14.64080332 -10 15 C-10 14.34 -10 13.68 -10 13 C-10.66 13.33 -11.32 13.66 -12 14 C-14.3329866 14.04022391 -16.66706666 14.04320247 -19 14 C-19.33 14.66 -19.66 15.32 -20 16 C-20.99 15.34 -21.98 14.68 -23 14 C-23 13.34 -23 12.68 -23 12 C-24.093125 11.896875 -25.18625 11.79375 -26.3125 11.6875 C-30.048881 10.99088659 -30.66677647 10.68320706 -33 8 C-33.99 8 -34.98 8 -36 8 C-37.2375 9.2375 -37.2375 9.2375 -38.5 10.5 C-39.7375 11.7375 -39.7375 11.7375 -41 13 C-41.99 13 -42.98 13 -44 13 C-44.99 13.66 -45.98 14.32 -47 15 C-47 14.34 -47 13.68 -47 13 C-48.0828125 13.7734375 -48.0828125 13.7734375 -49.1875 14.5625 C-52 16 -52 16 -54.5625 15.9375 C-57.56337812 14.78331611 -59.08325631 13.58023188 -61 11 C-60.6015625 8.86328125 -60.6015625 8.86328125 -60 7 C-59.35933594 7.03480469 -58.71867188 7.06960938 -58.05859375 7.10546875 C-52.10370181 7.29183646 -48.31198552 6.65599276 -43 4 C-41.67723944 3.62691369 -40.34767923 3.26953585 -39 3 C-39 3.66 -39 4.32 -39 5 C-38.01 4.34 -37.02 3.68 -36 3 C-33.3125 3.375 -33.3125 3.375 -31 4 C-31 4.99 -31 5.98 -31 7 C-27.29054264 6.94789331 -23.58337256 6.85276213 -19.875 6.75 C-18.82828125 6.73582031 -17.7815625 6.72164063 -16.703125 6.70703125 C-9.10972766 6.46673387 -5.41445289 5.41445289 0 0 Z " fill="#C7C1C1" transform="translate(274,311)"/>
<path d="M0 0 C2.06183633 -0.08150744 4.12461349 -0.1394194 6.1875 -0.1875 C7.33605469 -0.22230469 8.48460937 -0.25710937 9.66796875 -0.29296875 C13.33401297 0.02936808 15.106953 0.76822089 18 3 C19.8125 6.1875 19.8125 6.1875 21 9 C21.86625 8.34 22.7325 7.68 23.625 7 C27.27222457 4.83868174 28.85913089 4.36986774 33 5 C35.375 6.1875 35.375 6.1875 37 8 C37.25 10.6875 37.25 10.6875 37 13 C35.68 13.33 34.36 13.66 33 14 C33 12.68 33 11.36 33 10 C31.35 10.33 29.7 10.66 28 11 C27.87625 11.598125 27.7525 12.19625 27.625 12.8125 C27 15 27 15 25 18 C24.34 18 23.68 18 23 18 C22.67 17.34 22.34 16.68 22 16 C21.34 16.66 20.68 17.32 20 18 C19.67 17.34 19.34 16.68 19 16 C17.35 17.65 15.7 19.3 14 21 C13 18 13 18 13 16 C11.68 16.33 10.36 16.66 9 17 C8.01 14.69 7.02 12.38 6 10 C5.67 11.65 5.34 13.3 5 15 C4.34 15 3.68 15 3 15 C3 14.34 3 13.68 3 13 C2.34 13 1.68 13 1 13 C-0.00496852 9.98509443 -0.10335303 7.95818308 -0.0625 4.8125 C-0.05347656 3.91144531 -0.04445313 3.01039063 -0.03515625 2.08203125 C-0.02355469 1.39496094 -0.01195312 0.70789063 0 0 Z " fill="#EEE7E7" transform="translate(264,244)"/>
<path d="M0 0 C0.928125 0.20625 1.85625 0.4125 2.8125 0.625 C3.01875 1.57375 3.225 2.5225 3.4375 3.5 C4.52083333 6.91666667 4.52083333 6.91666667 7.9375 8 C8.88625 8.20625 9.835 8.4125 10.8125 8.625 C10.8125 10.605 10.8125 12.585 10.8125 14.625 C10.33941406 14.2640625 9.86632812 13.903125 9.37890625 13.53125 C4.88344571 10.37654085 1.46182818 8.84270861 -4.08203125 9.21484375 C-8.20521873 10.01806209 -10.93725444 11.77669146 -13.29858398 15.26757812 C-16.22595269 20.74162315 -16.83354391 25.47268982 -16.9375 31.625 C-16.96714844 32.49511719 -16.99679688 33.36523438 -17.02734375 34.26171875 C-17.09725408 36.38233216 -17.14473116 38.50366563 -17.1875 40.625 C-17.8475 40.625 -18.5075 40.625 -19.1875 40.625 C-19.5175 42.935 -19.8475 45.245 -20.1875 47.625 C-22.53869399 44.09820901 -22.40193452 42.59620515 -22.3125 38.4375 C-22.29445312 37.35082031 -22.27640625 36.26414062 -22.2578125 35.14453125 C-22.23460937 34.31308594 -22.21140625 33.48164063 -22.1875 32.625 C-22.5175 35.595 -22.8475 38.565 -23.1875 41.625 C-23.5175 41.625 -23.8475 41.625 -24.1875 41.625 C-24.1875 37.665 -24.1875 33.705 -24.1875 29.625 C-23.5275 29.625 -22.8675 29.625 -22.1875 29.625 C-22.538125 29.08875 -22.88875 28.5525 -23.25 28 C-24.89094044 23.84295089 -23.43747415 20.45303938 -22.1875 16.3125 C-19.62134985 10.62123631 -14.29657542 4.98346989 -8.5859375 2.48828125 C-7.79445312 2.20339844 -7.00296875 1.91851562 -6.1875 1.625 C-3.1875 -0.375 -3.1875 -0.375 0 0 Z " fill="#B4AEAE" transform="translate(181.1875,256.375)"/>
<path d="M0 0 C12.55555556 0 12.55555556 0 16 3 C18.8199641 7.22994616 18.79231188 11.03220448 18 16 C15.47323961 19.34625024 13.96066458 20.67977847 10 22 C6.7 22 3.4 22 0 22 C0 14.74 0 7.48 0 0 Z " fill="#FAF3F3" transform="translate(265,3)"/>
<path d="M0 0 C0.33 1.32 0.66 2.64 1 4 C2.093125 4.2475 3.18625 4.495 4.3125 4.75 C8.24426521 6.08280176 9.00542548 6.54233938 11 10 C11.72023757 13.746352 11.70003412 17.24981722 11 21 C8.71281208 24.30131842 5.78536213 25.73821262 2 27 C1.67 25.35 1.34 23.7 1 22 C0.67 23.32 0.34 24.64 0 26 C-2.31 26 -4.62 26 -7 26 C-7 18.74 -7 11.48 -7 4 C-4.69 4 -2.38 4 0 4 C0 2.68 0 1.36 0 0 Z " fill="#E83A42" transform="translate(91,115)"/>
<path d="M0 0 C0.33 0 0.66 0 1 0 C1.84062625 11.39389368 2.27796834 21.74415643 0 33 C-4.95 32.67 -9.9 32.34 -15 32 C-15 28.7 -15 25.4 -15 22 C-10.38 21.67 -5.76 21.34 -1 21 C-0.67 17.7 -0.34 14.4 0 11 C-4.95 11 -9.9 11 -15 11 C-15 8.03 -15 5.06 -15 2 C-14.00097656 1.93941406 -13.00195312 1.87882812 -11.97265625 1.81640625 C-10.68230469 1.73261719 -9.39195312 1.64882813 -8.0625 1.5625 C-6.77472656 1.48128906 -5.48695313 1.40007812 -4.16015625 1.31640625 C-1.13976043 1.35080812 -1.13976043 1.35080812 0 0 Z " fill="#B7B2B2" transform="translate(315,275)"/>
<path d="M0 0 C0.66 0.99 1.32 1.98 2 3 C2.66 2.34 3.32 1.68 4 1 C5.21629148 7.41982421 4.97542281 13.61715575 4.6875 20.125 C4.65205078 21.19621094 4.61660156 22.26742188 4.58007812 23.37109375 C4.53689453 24.40621094 4.49371094 25.44132812 4.44921875 26.5078125 C4.41143311 27.44254395 4.37364746 28.37727539 4.3347168 29.34033203 C3.97720819 32.18110431 3.11389371 34.3751137 2 37 C1.72123482 39.0959986 1.51411256 41.20262611 1.375 43.3125 C1.30023438 44.38113281 1.22546875 45.44976562 1.1484375 46.55078125 C1.09945313 47.35902344 1.05046875 48.16726563 1 49 C-0.65 48.67 -2.3 48.34 -4 48 C-4.90483637 42.63510405 -5.12303662 37.49682543 -5.0625 32.0625 C-5.05798828 31.28326172 -5.05347656 30.50402344 -5.04882812 29.70117188 C-5.03716908 27.80074732 -5.01923877 25.90036294 -5 24 C-5.66 24.33 -6.32 24.66 -7 25 C-6.38545304 21.00544473 -4.29353263 18.25533664 -2 15 C-2.99 15 -3.98 15 -5 15 C-5.33 15.66 -5.66 16.32 -6 17 C-8.475 16.01 -8.475 16.01 -11 15 C-11 14.67 -11 14.34 -11 14 C-9.906875 13.690625 -8.81375 13.38125 -7.6875 13.0625 C-5.44592006 12.41662103 -3.2130649 11.7376883 -1 11 C-0.67 7.37 -0.34 3.74 0 0 Z " fill="#B9B3B3" transform="translate(20,259)"/>
<path d="M0 0 C2.64 0 5.28 0 8 0 C11.13449983 3.13449983 10.29465807 6.53918902 10.32226562 10.81835938 C10.31904297 11.97142578 10.31582031 13.12449219 10.3125 14.3125 C10.32861328 15.45396484 10.34472656 16.59542969 10.36132812 17.77148438 C10.36197266 18.87427734 10.36261719 19.97707031 10.36328125 21.11328125 C10.36626221 22.12173096 10.36924316 23.13018066 10.37231445 24.16918945 C9.92094609 27.60106888 9.32492905 29.41124501 7 32 C4.69 32 2.38 32 0 32 C0 21.44 0 10.88 0 0 Z " fill="#6E5959" transform="translate(257,276)"/>
<path d="M0 0 C3.14851513 0.63419289 4.95576632 2.20576632 7.19140625 4.44140625 C7.52140625 4.44140625 7.85140625 4.44140625 8.19140625 4.44140625 C8.19140625 7.74140625 8.19140625 11.04140625 8.19140625 14.44140625 C7.53140625 14.44140625 6.87140625 14.44140625 6.19140625 14.44140625 C5.63453125 15.40046875 5.63453125 15.40046875 5.06640625 16.37890625 C2.58108898 19.11275525 0.71299443 19.20396276 -2.875 19.48046875 C-5.36927747 19.43007931 -6.82783265 18.96506864 -8.80859375 17.44140625 C-11.50949012 13.3900617 -11.44956104 10.19455327 -10.80859375 5.44140625 C-8.34752939 0.19826915 -5.39516782 -0.27553575 0 0 Z " fill="#F9F1F1" transform="translate(204.80859375,123.55859375)"/>
<path d="M0 0 C1.134375 0.103125 2.26875 0.20625 3.4375 0.3125 C4.0975 0.3125 4.7575 0.3125 5.4375 0.3125 C6.7575 0.3125 8.0775 0.3125 9.4375 0.3125 C9.55363204 3.41635211 9.62472029 6.51964662 9.6875 9.625 C9.72101562 10.50607422 9.75453125 11.38714844 9.7890625 12.29492188 C9.8876867 18.77946298 9.8876867 18.77946298 7.67578125 21.3984375 C3.99994626 22.89956383 1.4072606 22.62756036 -2.5625 22.3125 C-3.5525 21.6525 -4.5425 20.9925 -5.5625 20.3125 C-5.5625 19.6525 -5.5625 18.9925 -5.5625 18.3125 C-4.655 18.35375 -3.7475 18.395 -2.8125 18.4375 C0.3157046 18.31718444 1.82364006 17.9210292 4.4375 16.3125 C4.1075 15.9825 3.7775 15.6525 3.4375 15.3125 C1.7359375 15.3434375 1.7359375 15.3434375 0 15.375 C-3.5625 15.3125 -3.5625 15.3125 -5.5625 13.3125 C-6.47791026 9.01711342 -6.95103593 6.47810779 -5.5625 2.3125 C-3.5625 0.3125 -3.5625 0.3125 0 0 Z " fill="#FBF4F4" transform="translate(10.5625,8.6875)"/>
<path d="M0 0 C3.96 0 7.92 0 12 0 C15.25 3.5 15.25 3.5 17 7 C17.99 6.67 18.98 6.34 20 6 C19.34 7.32 18.68 8.64 18 10 C15.35247996 7.42215154 13.05567935 5.08351902 11 2 C7.7 1.67 4.4 1.34 1 1 C1 17.5 1 34 1 51 C3.97 51 6.94 51 10 51 C10 39.12 10 27.24 10 15 C12.66666667 17.66666667 15.33333333 20.33333333 18 23 C18.42152344 22.4225 18.84304687 21.845 19.27734375 21.25 C19.82519531 20.5075 20.37304688 19.765 20.9375 19 C21.75541016 17.88625 21.75541016 17.88625 22.58984375 16.75 C23.05519531 16.1725 23.52054688 15.595 24 15 C24.33 15 24.66 15 25 15 C25 26.88 25 38.76 25 51 C27.97 51 30.94 51 34 51 C34 34.5 34 18 34 1 C25.12731854 1.28800934 25.12731854 1.28800934 22 3 C22.33 2.01 22.66 1.02 23 0 C26.96 0 30.92 0 35 0 C35 17.16 35 34.32 35 52 C31.37 52 27.74 52 24 52 C23.505 36.655 23.505 36.655 23 21 C21.35 22.98 19.7 24.96 18 27 C16.29115995 25.37660195 14.62553283 23.70680947 13 22 C13 21.34 13 20.68 13 20 C12.34 20 11.68 20 11 20 C11 30.56 11 41.12 11 52 C7.37 52 3.74 52 0 52 C0 34.84 0 17.68 0 0 Z " fill="#78161B" transform="translate(100,266)"/>
<path d="M0 0 C0.99 0.495 0.99 0.495 2 1 C2.59355614 3.64860427 2.74209269 6.29197322 3 9 C3.66 8.67 4.32 8.34 5 8 C5 9.32 5 10.64 5 12 C5.66 12 6.32 12 7 12 C8.16870641 17.3919864 8.01672317 22.46967498 7.75 27.9375 C7.72292969 28.80568359 7.69585937 29.67386719 7.66796875 30.56835938 C7.41104155 36.05085432 6.68554327 40.17710921 4 45 C2.68 45.99 1.36 46.98 0 48 C0 32.16 0 16.32 0 0 Z " fill="#B5B0B0" transform="translate(135,266)"/>
<path d="M0 0 C0.9075 0.00257813 1.815 0.00515625 2.75 0.0078125 C4.11125 0.00394531 4.11125 0.00394531 5.5 0 C7.75 0.1328125 7.75 0.1328125 8.75 1.1328125 C10.22642459 14.27481406 10.62049471 28.03934952 8.75 41.1328125 C13.7 41.1328125 18.65 41.1328125 23.75 41.1328125 C23.75 44.7628125 23.75 48.3928125 23.75 52.1328125 C14.84 52.1328125 5.93 52.1328125 -3.25 52.1328125 C-3.27290278 44.88790036 -3.29283177 37.64311281 -3.30493164 30.39819336 C-3.30997356 27.93139217 -3.31680691 25.46459398 -3.32543945 22.99780273 C-3.33751125 19.46076721 -3.34322956 15.92377105 -3.34765625 12.38671875 C-3.35281754 11.27631729 -3.35797882 10.16591583 -3.36329651 9.02186584 C-3.36337204 8.00088303 -3.36344757 6.97990021 -3.36352539 5.92797852 C-3.365746 5.02418961 -3.36796661 4.1204007 -3.37025452 3.18922424 C-3.20017965 0.2808598 -2.91077886 0.17181681 0 0 Z M-1.25 1.1328125 C-1.25 17.6328125 -1.25 34.1328125 -1.25 51.1328125 C6.67 51.1328125 14.59 51.1328125 22.75 51.1328125 C22.75 48.1628125 22.75 45.1928125 22.75 42.1328125 C17.47 42.1328125 12.19 42.1328125 6.75 42.1328125 C6.75 28.6028125 6.75 15.0728125 6.75 1.1328125 C4.11 1.1328125 1.47 1.1328125 -1.25 1.1328125 Z " fill="#922D32" transform="translate(27.25,265.8671875)"/>
<path d="M0 0 C1.1446875 0.3403125 1.1446875 0.3403125 2.3125 0.6875 C2.36189115 4.78088652 2.39821501 8.87415798 2.42236328 12.96777344 C2.43242877 14.36070781 2.44608234 15.75362102 2.46337891 17.14648438 C2.4876022 19.1470436 2.49790814 21.14775615 2.5078125 23.1484375 C2.51828613 24.35290527 2.52875977 25.55737305 2.53955078 26.79833984 C2.3125 29.6875 2.3125 29.6875 0.3125 31.6875 C-2.25 31.4375 -2.25 31.4375 -4.6875 30.6875 C-6.85896805 26.3445639 -5.91716856 20.5202644 -5.9375 15.75 C-5.958125 14.54408203 -5.97875 13.33816406 -6 12.09570312 C-6.00515625 10.94134766 -6.0103125 9.78699219 -6.015625 8.59765625 C-6.0249707 7.53683838 -6.03431641 6.47602051 -6.04394531 5.38305664 C-5.6875 2.6875 -5.6875 2.6875 -4.47949219 0.75561523 C-2.6875 -0.3125 -2.6875 -0.3125 0 0 Z " fill="#706D6D" transform="translate(221.6875,276.3125)"/>
<path d="M0 0 C1.41377341 2.63904371 2.37240135 5.07120629 3 8 C3.99 7.67 4.98 7.34 6 7 C7.22520264 3.99152582 7.22520264 3.99152582 8 1 C8.33 1 8.66 1 9 1 C9.0984702 5.13574827 8.77403558 8.93631321 8 13 C5.03 13 2.06 13 -1 13 C-1.33 11.68 -1.66 10.36 -2 9 C-2.50660156 9.15597656 -3.01320313 9.31195313 -3.53515625 9.47265625 C-8.07386652 10.44369569 -12.74480115 10.40516947 -17.37109375 10.62109375 C-20.69468374 10.96812091 -22.96097757 11.72645283 -26 13 C-28.3125 12.125 -28.3125 12.125 -30 11 C-26.79663178 8.16625119 -24.21912747 7.4794463 -20 7 C-20 6.34 -20 5.68 -20 5 C-13.82191096 0.92246123 -13.82191096 0.92246123 -9.6875 1.3125 C-8.800625 1.539375 -7.91375 1.76625 -7 2 C-6.34 1.67 -5.68 1.34 -5 1 C-5 1.99 -5 2.98 -5 4 C-4.34 4 -3.68 4 -3 4 C-3 4.66 -3 5.32 -3 6 C-2.34 6 -1.68 6 -1 6 C-1.020625 5.195625 -1.04125 4.39125 -1.0625 3.5625 C-1 1 -1 1 0 0 Z " fill="#C9C4C4" transform="translate(270,253)"/>
<path d="M0 0 C5.33333333 0 10.66666667 0 16 0 C17.546875 -0.061875 17.546875 -0.061875 19.125 -0.125 C22 0 22 0 24 2 C24.1953125 5.2578125 24.1953125 5.2578125 24.125 9.125 C24.10695312 10.40632812 24.08890625 11.68765625 24.0703125 13.0078125 C24.04710937 13.99523437 24.02390625 14.98265625 24 16 C22.68 16 21.36 16 20 16 C19.67 12.37 19.34 8.74 19 5 C18.34 5.66 17.68 6.32 17 7 C16.67 6.01 16.34 5.02 16 4 C14.26043342 5.73956658 14.62809614 8.1936622 14.4375 10.5625 C14.35371094 11.57441406 14.26992187 12.58632812 14.18359375 13.62890625 C14.12300781 14.41136719 14.06242188 15.19382813 14 16 C12.68 16 11.36 16 10 16 C9.67 12.04 9.34 8.08 9 4 C8.01 4 7.02 4 6 4 C5.67 7.96 5.34 11.92 5 16 C3.35 16 1.7 16 0 16 C0 10.72 0 5.44 0 0 Z " fill="#EA3F47" transform="translate(231,125)"/>
<path d="M0 0 C5 0 10 0 15 0 C16.546875 -0.061875 16.546875 -0.061875 18.125 -0.125 C21 0 21 0 23 2 C23.1953125 5.2578125 23.1953125 5.2578125 23.125 9.125 C23.10695313 10.40632813 23.08890625 11.68765625 23.0703125 13.0078125 C23.04710938 13.99523438 23.02390625 14.98265625 23 16 C21.68 16 20.36 16 19 16 C18.67 12.04 18.34 8.08 18 4 C16.68 4.33 15.36 4.66 14 5 C13.67 8.63 13.34 12.26 13 16 C11.68 16 10.36 16 9 16 C8.67 12.04 8.34 8.08 8 4 C7.01 4 6.02 4 5 4 C4.67 7.96 4.34 11.92 4 16 C2.68 16 1.36 16 0 16 C0 10.72 0 5.44 0 0 Z " fill="#FDF6F6" transform="translate(88,9)"/>
<path d="M0 0 C2.97 0 5.94 0 9 0 C9 0.66 9 1.32 9 2 C9.99 2.33 10.98 2.66 12 3 C17.52978056 8.92476489 17.52978056 8.92476489 18 13 C15.37685298 12.49554865 13.60394745 11.77497014 11.25 10.4375 C7.29780605 8.68941422 4.25379635 8.22889349 0 9 C-3.93622829 11.04100726 -6.48209259 12.74985925 -8 17 C-8.66 17 -9.32 17 -10 17 C-9.34 14.69 -8.68 12.38 -8 10 C-9.65 9.67 -11.3 9.34 -13 9 C-7.56777494 3.26598465 -7.56777494 3.26598465 -4 2 C-2.68 2 -1.36 2 0 2 C0 1.34 0 0.68 0 0 Z " fill="#C6C0C0" transform="translate(216,257)"/>
<path d="M0 0 C2.4395583 1.77422422 2.8366175 2.97781205 3.3046875 5.90625 C3.5294052 9.44885838 3.34460456 11.44863271 1.4375 14.5 C-1.94888329 16.58392818 -4.09385318 16.55802097 -8 16 C-10.4375 14.5625 -10.4375 14.5625 -12 12 C-12.60618242 8.1838061 -13.07373929 4.50794735 -10.75390625 1.25 C-7.50213703 -1.06751926 -3.81041399 -0.61732964 0 0 Z " fill="#FDF6F6" transform="translate(81,9)"/>
<path d="M0 0 C4.68239485 1.74442161 7.76224871 4.20720563 11 8 C12.88116878 13.24828426 12.22461812 19.2422514 12.24023438 24.73461914 C12.2499201 26.79549842 12.28096078 28.85537087 12.3125 30.91601562 C12.3622035 43.57176958 12.3622035 43.57176958 9 49 C3.75025246 53.15605014 -0.32281861 54.54730995 -7 54 C-12.53940214 52.28443889 -15.28427816 50.15966603 -18.14949036 44.99327087 C-19.5319032 41.75342137 -19.49458861 38.55069332 -19.390625 35.09765625 C-19.38496521 34.3750914 -19.37930542 33.65252655 -19.37347412 32.9080658 C-19.35128257 30.62550414 -19.30112549 28.34457802 -19.25 26.0625 C-19.22991244 24.50458014 -19.21166564 22.9466354 -19.1953125 21.38867188 C-19.1514753 17.5918285 -19.08257421 13.79619043 -19 10 C-18.67 10 -18.34 10 -18 10 C-17.98541748 10.90766113 -17.97083496 11.81532227 -17.95581055 12.75048828 C-17.89451851 16.1390931 -17.82032424 19.52691689 -17.73754883 22.91503906 C-17.70442865 24.37749708 -17.67635695 25.84007895 -17.65356445 27.30273438 C-17.61977825 29.41329403 -17.5674562 31.52273186 -17.51171875 33.6328125 C-17.48553467 34.90012207 -17.45935059 36.16743164 -17.43237305 37.47314453 C-16.83550818 42.3417554 -15.13733101 45.64941943 -12 49.375 C-7.41443433 51.85884807 -3.09622013 51.8804597 2 51 C5.66735838 49.13427593 7.67953881 46.96138356 9 43 C9.27465174 38.33683071 9.31332597 33.67465086 9.35009766 29.00415039 C9.36664314 27.46493393 9.39391534 25.92579387 9.43212891 24.38696289 C9.48714654 22.15731336 9.50880579 19.92945732 9.5234375 17.69921875 C9.54610687 17.01776291 9.56877625 16.33630707 9.59213257 15.63420105 C9.56757582 10.02888523 7.79927728 7.80604516 4 4 C-0.05788894 1.33338727 -4.13635934 1.97124133 -8.79296875 2.3203125 C-11.1757546 2.77596399 -11.1757546 2.77596399 -12.11328125 4.9921875 C-12.40589844 5.65476562 -12.69851562 6.31734375 -13 7 C-13.99 7.33 -14.98 7.66 -16 8 C-13.43374988 0.81449966 -6.92291624 -1.13763353 0 0 Z " fill="#812C2F" transform="translate(224,265)"/>
<path d="M0 0 C0.66 1.32 1.32 2.64 2 4 C2.99 3.67 3.98 3.34 5 3 C4.8125 5.375 4.8125 5.375 4 8 C1.4375 9.3125 1.4375 9.3125 -1 10 C-1.33 9.67 -1.66 9.34 -2 9 C-2.99 10.485 -2.99 10.485 -4 12 C-4.99 12 -5.98 12 -7 12 C-6.98952637 12.65073486 -6.97905273 13.30146973 -6.96826172 13.97192383 C-6.92670165 16.9187433 -6.90067392 19.86550111 -6.875 22.8125 C-6.85824219 23.83666016 -6.84148438 24.86082031 -6.82421875 25.91601562 C-6.81777344 26.89892578 -6.81132813 27.88183594 -6.8046875 28.89453125 C-6.79421387 29.80050049 -6.78374023 30.70646973 -6.77294922 31.63989258 C-7 34 -7 34 -9 37 C-9.38499891 38.65549531 -9.72793135 40.3222433 -10 42 C-11.85776765 38.86501708 -12.20140476 36.62528568 -12 33 C-12.33 33 -12.66 33 -13 33 C-13.02688151 31.35425434 -13.04634123 29.70838587 -13.0625 28.0625 C-13.07410156 27.14597656 -13.08570313 26.22945313 -13.09765625 25.28515625 C-13 23 -13 23 -12 22 C-12.185625 21.38125 -12.37125 20.7625 -12.5625 20.125 C-12.706875 19.42375 -12.85125 18.7225 -13 18 C-12.01 16.515 -12.01 16.515 -11 15 C-11 14.01 -11 13.02 -11 12 C-11 9 -11 9 -9.375 7.3125 C-6.41801336 5.67837581 -4.32820054 5.77307724 -1 6 C-1 5.34 -1 4.68 -1 4 C-1.66 3.67 -2.32 3.34 -3 3 C-2.01 2.01 -1.02 1.02 0 0 Z " fill="#C4BFBF" transform="translate(68,254)"/>
<path d="M0 0 C0.66 0 1.32 0 2 0 C3.32378398 10.30660383 3.09139066 20.63223764 3 31 C3.66 31 4.32 31 5 31 C4.97679687 30.25234375 4.95359375 29.5046875 4.9296875 28.734375 C4.91164063 27.74953125 4.89359375 26.7646875 4.875 25.75 C4.85179687 24.77546875 4.82859375 23.8009375 4.8046875 22.796875 C5.00137219 19.9803502 5.55431084 18.39050964 7 16 C7.40843329 22.29289812 6.77507252 28.20381063 5.625 34.375 C5.49891357 35.06464844 5.37282715 35.75429688 5.24291992 36.46484375 C4.55847532 39.95581012 3.64734823 42.86287598 2 46 C2 46.99 2 47.98 2 49 C0.5 50.6875 0.5 50.6875 -1 52 C-1.02747059 49.85424137 -1.04660463 47.70837559 -1.0625 45.5625 C-1.07410156 44.36753906 -1.08570313 43.17257812 -1.09765625 41.94140625 C-1.02851026 39.15067411 -0.84416671 36.6691817 -0.46484375 33.93359375 C0.3158203 27.46078932 -0.1866494 20.99369123 -0.5 14.5 C-0.61919713 11.96896307 -0.73403531 9.4377157 -0.84375 6.90625 C-0.89724609 5.79572266 -0.95074219 4.68519531 -1.00585938 3.54101562 C-1 1 -1 1 0 0 Z " fill="#C8C2C2" transform="translate(316,265)"/>
<path d="M0 0 C3.9375 0.5 3.9375 0.5 5.875 1.625 C7.32341512 4.18102669 7.61565583 6.60340247 7.9375 9.5 C4.3075 9.5 0.6775 9.5 -3.0625 9.5 C-3.0625 10.49 -3.0625 11.48 -3.0625 12.5 C-2.7325 11.84 -2.4025 11.18 -2.0625 10.5 C0.9075 10.83 3.8775 11.16 6.9375 11.5 C6.6075 12.82 6.2775 14.14 5.9375 15.5 C2.88056678 17.02846661 0.30765453 16.73242445 -3.0625 16.5 C-5.4375 15.5 -5.4375 15.5 -7.0625 13.5 C-8.44894534 9.34066399 -8.53114792 6.47804783 -6.625 2.5 C-3.95760615 0.41813163 -3.22616385 0.14285596 0 0 Z " fill="#FAF3F3" transform="translate(294.0625,8.5)"/>
<path d="M0 0 C3.3 0 6.6 0 10 0 C10 0.33 10 0.66 10 1 C7.03 1 4.06 1 1 1 C1.33 11.56 1.66 22.12 2 33 C4.475 32.505 4.475 32.505 7 32 C7.08710289 35.10398978 7.14042309 38.20766548 7.1875 41.3125 C7.21263672 42.19357422 7.23777344 43.07464844 7.26367188 43.98242188 C7.27333984 44.82998047 7.28300781 45.67753906 7.29296875 46.55078125 C7.3086792 47.33106689 7.32438965 48.11135254 7.34057617 48.9152832 C6.9095481 51.55366936 6.13858594 52.43445625 4 54 C3.01 54 2.02 54 1 54 C0.67 54.66 0.34 55.32 0 56 C0 37.52 0 19.04 0 0 Z " fill="#EA4C53" transform="translate(157,93)"/>
<path d="M0 0 C4.62 0 9.24 0 14 0 C14 7.92 14 15.84 14 24 C10 23 10 23 8.75 20.9375 C8.5025 20.298125 8.255 19.65875 8 19 C8 19.66 8 20.32 8 21 C7.34 21 6.68 21 6 21 C5.67 14.73 5.34 8.46 5 2 C3.35 1.67 1.7 1.34 0 1 C0 0.67 0 0.34 0 0 Z " fill="#FBF3F3" transform="translate(321,0)"/>
<path d="M0 0 C0 0.99 0 1.98 0 3 C0.33 3.66 0.66 4.32 1 5 C1.99 4.34 2.98 3.68 4 3 C6.6875 2.875 6.6875 2.875 9 3 C9.66 4.65 10.32 6.3 11 8 C9.7315625 7.814375 9.7315625 7.814375 8.4375 7.625 C4.10747518 8.09736634 2.62134036 9.70018613 -0.38671875 12.6875 C-2 14 -2 14 -5 14 C-5.99 14.495 -5.99 14.495 -7 15 C-6.34 13.68 -5.68 12.36 -5 11 C-5.33 10.67 -5.66 10.34 -6 10 C-6.825 10.144375 -7.65 10.28875 -8.5 10.4375 C-12.70563927 11.11340631 -16.75227729 11.08495445 -21 11 C-21 10.34 -21 9.68 -21 9 C-22.65 9 -24.3 9 -26 9 C-26 8.34 -26 7.68 -26 7 C-24.77023438 6.97421875 -23.54046875 6.9484375 -22.2734375 6.921875 C-20.64059068 6.86556994 -19.00777955 6.80822315 -17.375 6.75 C-16.16263672 6.72873047 -16.16263672 6.72873047 -14.92578125 6.70703125 C-8.45409561 6.4439546 -4.65889438 4.65889438 0 0 Z " fill="#B3ACAC" transform="translate(274,311)"/>
<path d="M0 0 C3 2 3 2 4 5 C4.09182942 6.53949329 4.13002352 8.08277855 4.125 9.625 C4.12886719 10.81996094 4.12886719 10.81996094 4.1328125 12.0390625 C4 14 4 14 3 15 C1.48071962 15.07179964 -0.04167482 15.08392007 -1.5625 15.0625 C-2.38878906 15.05347656 -3.21507812 15.04445313 -4.06640625 15.03515625 C-4.70449219 15.02355469 -5.34257812 15.01195312 -6 15 C-8 8.25 -8 8.25 -8 6 C-11.29075996 6.37904208 -11.29075996 6.37904208 -14 8 C-14.08758003 9.99964982 -14.10696576 12.0023611 -14.09765625 14.00390625 C-14.09443359 15.21884766 -14.09121094 16.43378906 -14.08789062 17.68554688 C-14.07951172 18.96494141 -14.07113281 20.24433594 -14.0625 21.5625 C-14.05573242 23.48739258 -14.05573242 23.48739258 -14.04882812 25.45117188 C-14.03699545 28.63416022 -14.02051068 31.81705762 -14 35 C-12.68 35.33 -11.36 35.66 -10 36 C-7.87491756 32.81237635 -7.4979837 30.73487777 -7 27 C-3.37 27 0.26 27 4 27 C4.39428904 34.19577498 4.12576744 38.06920931 0 44 C-1 41 -1 41 0.375 38.1875 C0.91125 37.135625 1.4475 36.08375 2 35 C2.70758326 31.7633037 2.70758326 31.7633037 3 29 C0.03 29 -2.94 29 -6 29 C-5.938125 29.928125 -5.87625 30.85625 -5.8125 31.8125 C-6 35 -6 35 -7.1875 36.875 C-9.61758081 38.38332602 -11.19015752 38.36023622 -14 38 C-16.83259575 35.16740425 -16.25838261 33.2730534 -16.265625 29.3125 C-16.26753845 28.65419189 -16.2694519 27.99588379 -16.27142334 27.31762695 C-16.2727845 25.9256146 -16.26909283 24.53358953 -16.26074219 23.14160156 C-16.250041 21.00817411 -16.26063906 18.87558869 -16.2734375 16.7421875 C-16.27211589 15.39062314 -16.26955347 14.0390593 -16.265625 12.6875 C-16.26336914 11.45386719 -16.26111328 10.22023438 -16.25878906 8.94921875 C-16 6 -16 6 -14 4 C-10.4375 4.25 -10.4375 4.25 -7 5 C-5.64560332 7.70879335 -5.93498549 10.00933268 -6 13 C-3.03 13 -0.06 13 3 13 C2.690625 11.5975 2.38125 10.195 2.0625 8.75 C1.88847656 7.96109375 1.71445313 7.1721875 1.53515625 6.359375 C1.052444 4.23121297 0.53836822 2.11467158 0 0 Z " fill="#86292E" transform="translate(191,271)"/>
<path d="M0 0 C1.32 0.33 2.64 0.66 4 1 C4.66 4.3 5.32 7.6 6 11 C6.99 11.33 7.98 11.66 9 12 C9 8.04 9 4.08 9 0 C9.33 0 9.66 0 10 0 C10 2.97 10 5.94 10 9 C10.99 8.34 11.98 7.68 13 7 C15.6875 7.375 15.6875 7.375 18 8 C18.33 8.99 18.66 9.98 19 11 C18.01 12.485 18.01 12.485 17 14 C12.125 13.125 12.125 13.125 11 12 C10.67 12.66 10.34 13.32 10 14 C9.01 14 8.02 14 7 14 C6.67 14.99 6.34 15.98 6 17 C5.67 15.68 5.34 14.36 5 13 C2.69 12.67 0.38 12.34 -2 12 C-2.05395478 10.37536158 -2.09277195 8.75021459 -2.125 7.125 C-2.14820312 6.22007812 -2.17140625 5.31515625 -2.1953125 4.3828125 C-2 2 -2 2 0 0 Z " fill="#D4CDCD" transform="translate(30,254)"/>
<path d="M0 0 C2.475 0.495 2.475 0.495 5 1 C5.33 0.67 5.66 0.34 6 0 C9.4375 -0.25 9.4375 -0.25 13 0 C15.42130331 3.63195496 15.21022785 5.38349348 15.125 9.6875 C15.10695313 10.86699219 15.08890625 12.04648437 15.0703125 13.26171875 C15.03550781 14.61716797 15.03550781 14.61716797 15 16 C13.68 16 12.36 16 11 16 C10.67 12.37 10.34 8.74 10 5 C8.68 4.67 7.36 4.34 6 4 C4.26043342 5.73956658 4.62809614 8.1936622 4.4375 10.5625 C4.35371094 11.57441406 4.26992188 12.58632813 4.18359375 13.62890625 C4.12300781 14.41136719 4.06242187 15.19382812 4 16 C2.68 16 1.36 16 0 16 C0 10.72 0 5.44 0 0 Z " fill="#FDF6F6" transform="translate(24,9)"/>
<path d="M0 0 C0.66 0.99 1.32 1.98 2 3 C2.66 2.34 3.32 1.68 4 1 C5.01548831 6.07744153 5.12895635 9.25823358 3 14 C2.40626587 14.77935913 2.40626587 14.77935913 1.80053711 15.57446289 C-2.8970569 21.81073145 -2.77498338 27.91330482 -2.8125 35.5 C-2.83763672 36.70398438 -2.86277344 37.90796875 -2.88867188 39.1484375 C-2.94722049 42.09928749 -2.98373832 45.04866484 -3 48 C-3.33 48 -3.66 48 -4 48 C-4.90483637 42.63510405 -5.12303662 37.49682543 -5.0625 32.0625 C-5.05798828 31.28326172 -5.05347656 30.50402344 -5.04882812 29.70117188 C-5.03716908 27.80074732 -5.01923877 25.90036294 -5 24 C-5.66 24.33 -6.32 24.66 -7 25 C-6.38545304 21.00544473 -4.29353263 18.25533664 -2 15 C-2.99 15 -3.98 15 -5 15 C-5.33 15.66 -5.66 16.32 -6 17 C-8.475 16.01 -8.475 16.01 -11 15 C-11 14.67 -11 14.34 -11 14 C-9.906875 13.690625 -8.81375 13.38125 -7.6875 13.0625 C-5.44592006 12.41662103 -3.2130649 11.7376883 -1 11 C-0.67 7.37 -0.34 3.74 0 0 Z " fill="#CAC4C4" transform="translate(20,259)"/>
<path d="M0 0 C1.21816406 0.03480469 1.21816406 0.03480469 2.4609375 0.0703125 C3.68683594 0.09738281 3.68683594 0.09738281 4.9375 0.125 C5.87722656 0.15980469 5.87722656 0.15980469 6.8359375 0.1953125 C7.4959375 1.5153125 8.1559375 2.8353125 8.8359375 4.1953125 C6.1959375 3.8653125 3.5559375 3.5353125 0.8359375 3.1953125 C0.8359375 3.8553125 0.8359375 4.5153125 0.8359375 5.1953125 C1.68478516 5.45054688 1.68478516 5.45054688 2.55078125 5.7109375 C3.28425781 5.95328125 4.01773437 6.195625 4.7734375 6.4453125 C5.86978516 6.79335937 5.86978516 6.79335937 6.98828125 7.1484375 C8.8359375 8.1953125 8.8359375 8.1953125 9.68359375 10.1640625 C9.8359375 12.1953125 9.8359375 12.1953125 8.3359375 14.4453125 C4.95274434 16.81354771 2.88725427 16.7017271 -1.1640625 16.1953125 C-3.6015625 14.8203125 -3.6015625 14.8203125 -5.1640625 13.1953125 C-5.1640625 12.5353125 -5.1640625 11.8753125 -5.1640625 11.1953125 C-3.5140625 11.1953125 -1.8640625 11.1953125 -0.1640625 11.1953125 C-0.1640625 11.8553125 -0.1640625 12.5153125 -0.1640625 13.1953125 C1.81130495 12.84744542 1.81130495 12.84744542 3.8359375 12.1953125 C4.1659375 11.5353125 4.4959375 10.8753125 4.8359375 10.1953125 C4.27003906 10.06253906 3.70414062 9.92976563 3.12109375 9.79296875 C2.38761719 9.61636719 1.65414063 9.43976562 0.8984375 9.2578125 C0.16753906 9.08378906 -0.56335938 8.90976562 -1.31640625 8.73046875 C-3.1640625 8.1953125 -3.1640625 8.1953125 -4.1640625 7.1953125 C-4.3515625 4.7578125 -4.3515625 4.7578125 -4.1640625 2.1953125 C-2.1640625 0.1953125 -2.1640625 0.1953125 0 0 Z " fill="#FDF6F6" transform="translate(309.1640625,8.8046875)"/>
<path d="M0 0 C0.7940625 -0.01417969 1.588125 -0.02835937 2.40625 -0.04296875 C4.5 0.1875 4.5 0.1875 6.5 2.1875 C5.91992188 2.15269531 5.33984375 2.11789062 4.7421875 2.08203125 C-0.45454608 1.90194642 -4.09124984 2.1116278 -8.5 5.1875 C-12.14305739 9.72048999 -13.01074431 12.78575545 -13.03125 18.5625 C-13.0350769 19.25005371 -13.03890381 19.93760742 -13.04284668 20.64599609 C-13.0455539 22.09148636 -13.03827628 23.53702661 -13.02148438 24.98242188 C-13.0000525 27.18211132 -13.02132124 29.37853588 -13.046875 31.578125 C-13.04423151 32.98959047 -13.03910607 34.40105392 -13.03125 35.8125 C-13.02673828 37.08351563 -13.02222656 38.35453125 -13.01757812 39.6640625 C-12.40916861 43.80583899 -11.11508213 45.95361784 -8.5 49.1875 C-5.14119635 51.42670243 -3.98423396 51.43353334 -0.0625 51.375 C0.88496094 51.36855469 1.83242187 51.36210937 2.80859375 51.35546875 C5.1860594 51.20709281 7.22379037 50.86013878 9.5 50.1875 C6.60586554 53.35726631 4.53428587 54.10944069 0.1875 54.4375 C-4.94963674 54.08921954 -8.00335436 52.64138434 -11.6875 49.0625 C-16.53477468 41.37371947 -16.90958262 34.02792273 -16.4375 25.125 C-16.40978516 24.08794922 -16.38207031 23.05089844 -16.35351562 21.98242188 C-16.00399795 14.21919123 -14.70108039 8.15993179 -8.875 2.75 C-5.62216468 0.60997676 -3.86123117 0.03134116 0 0 Z " fill="#8F2D31" transform="translate(179.5,264.8125)"/>
<path d="M0 0 C7.92 0 15.84 0 24 0 C23.01 1.485 23.01 1.485 22 3 C22 4.32 22 5.64 22 7 C18.4661479 9.3559014 16.55262788 9.26508281 12.4375 8.5625 C10 8 10 8 7 7 C6.896875 6.360625 6.79375 5.72125 6.6875 5.0625 C6.3471875 4.0415625 6.3471875 4.0415625 6 3 C3.00384054 1.6954344 3.00384054 1.6954344 0 1 C0 0.67 0 0.34 0 0 Z " fill="#BCB6B6" transform="translate(25,318)"/>
<path d="M0 0 C2 1.875 2 1.875 3 4 C3 4.66 3 5.32 3 6 C1.68 6 0.36 6 -1 6 C-1.33 5.34 -1.66 4.68 -2 4 C-3.65 4.33 -5.3 4.66 -7 5 C-6.67 7.31 -6.34 9.62 -6 12 C-5.443125 11.855625 -4.88625 11.71125 -4.3125 11.5625 C-1.88615805 10.97230872 0.54906345 10.476571 3 10 C1.25 14.875 1.25 14.875 -1 16 C-4.79877599 16.35173852 -7.14360153 16.52701444 -10.4375 14.5 C-12.64099302 10.97441116 -12.79669284 8.04985528 -12 4 C-9.0037448 -0.99375866 -5.31038385 -0.67433446 0 0 Z " fill="#FDF6F6" transform="translate(63,9)"/>
<path d="M0 0 C2.375 1.1875 2.375 1.1875 4 3 C4.25 5.6875 4.25 5.6875 4 8 C2.68 8.33 1.36 8.66 0 9 C0 7.68 0 6.36 0 5 C-1.65 5.33 -3.3 5.66 -5 6 C-5.12375 6.598125 -5.2475 7.19625 -5.375 7.8125 C-6 10 -6 10 -8 13 C-8.66 13 -9.32 13 -10 13 C-10.33 12.34 -10.66 11.68 -11 11 C-11.66 11.66 -12.32 12.32 -13 13 C-14.28317892 9.15046324 -14.06643637 6.05261865 -14 2 C-12.515 2.99 -12.515 2.99 -11 4 C-10.29875 3.34 -9.5975 2.68 -8.875 2 C-5.50172663 -0.34662495 -4.02250703 -0.59909679 0 0 Z " fill="#E5DEDE" transform="translate(297,249)"/>
<path d="M0 0 C1.64574566 -0.02688151 3.29161413 -0.04634123 4.9375 -0.0625 C5.85402344 -0.07410156 6.77054688 -0.08570313 7.71484375 -0.09765625 C10 0 10 0 11 1 C12.47642459 14.14200156 12.87049471 27.90653702 11 41 C15.95 41 20.9 41 26 41 C26 44.63 26 48.26 26 52 C25.67 52 25.34 52 25 52 C25 48.7 25 45.4 25 42 C19.72 42 14.44 42 9 42 C9 28.47 9 14.94 9 1 C6.03 1 3.06 1 0 1 C0 0.67 0 0.34 0 0 Z " fill="#8E383C" transform="translate(25,266)"/>
<path d="M0 0 C2.63804589 -0.39397335 2.63804589 -0.39397335 5 -1 C5 2.13751221 4.64820195 3.39757586 3 6 C2.01 6.33 1.02 6.66 0 7 C0 6.34 0 5.68 0 5 C-0.721875 5.28875 -1.44375 5.5775 -2.1875 5.875 C-4.79166667 6.91666667 -7.39583333 7.95833333 -10 9 C-13.2542015 6.16569547 -14.5206753 4.31392226 -15 0 C-14.07767578 0.01740234 -14.07767578 0.01740234 -13.13671875 0.03515625 C-11.92435547 0.04869141 -11.92435547 0.04869141 -10.6875 0.0625 C-9.88699219 0.07410156 -9.08648437 0.08570313 -8.26171875 0.09765625 C-0.68807339 -0.2293578 -0.68807339 -0.2293578 0 0 Z " fill="#CCC6C6" transform="translate(189,318)"/>
<path d="M0 0 C0 5.28 0 10.56 0 16 C-5 16 -5 16 -7.3125 13.875 C-9.31486677 10.46356032 -9.72862574 8.88600392 -9 5 C-5.94244711 1.09312687 -5.0698138 0 0 0 Z " fill="#E73A42" transform="translate(114,125)"/>
<path d="M0 0 C0.66 0.66 1.32 1.32 2 2 C3.90365164 2.27512392 3.90365164 2.27512392 6.0625 2.3125 C11.5166984 2.77291935 15.45662283 5.08923117 20 8 C15.66089837 9.44636721 11.46451567 8.66548559 6.98046875 8.22851562 C2.76095105 7.88671112 -0.213312 8.04725697 -4 10 C-4.33 9.34 -4.66 8.68 -5 8 C-5.33 8.66 -5.66 9.32 -6 10 C-7.32 9.67 -8.64 9.34 -10 9 C-9.67 7.68 -9.34 6.36 -9 5 C-6.36 4.67 -3.72 4.34 -1 4 C-0.67 2.68 -0.34 1.36 0 0 Z " fill="#C9C3C3" transform="translate(111,253)"/>
<path d="M0 0 C0 5.28 0 10.56 0 16 C-6 15 -6 15 -7.9375 13.4375 C-9.51797088 9.81171387 -9.03756325 6.75917146 -8 3 C-5.68364458 -0.70616867 -4.7439087 0 0 0 Z " fill="#FDF6F6" transform="translate(157,125)"/>
<path d="M0 0 C0.33 1.32 0.66 2.64 1 4 C2.24716797 3.85691406 2.24716797 3.85691406 3.51953125 3.7109375 C4.60621094 3.60007812 5.69289063 3.48921875 6.8125 3.375 C7.89144531 3.25898438 8.97039062 3.14296875 10.08203125 3.0234375 C13 3 13 3 16 5 C13.64561267 6.42944945 12.51967567 7.08661261 9.75 6.625 C9.1725 6.41875 8.595 6.2125 8 6 C7.34 7.32 6.68 8.64 6 10 C5.21625 9.360625 4.4325 8.72125 3.625 8.0625 C0.26632953 5.42354463 -1.39298341 4.86866529 -5.5703125 4.68359375 C-6.46621094 4.64169922 -7.36210937 4.59980469 -8.28515625 4.55664062 C-9.22230469 4.51732422 -10.15945313 4.47800781 -11.125 4.4375 C-12.06988281 4.39431641 -13.01476562 4.35113281 -13.98828125 4.30664062 C-16.32537092 4.20040928 -18.6625683 4.09836824 -21 4 C-21 4.99 -21 5.98 -21 7 C-21.66 6.67 -22.32 6.34 -23 6 C-22 3 -22 3 -19 1 C-16.49335357 0.69771954 -14.07693427 0.49071701 -11.5625 0.375 C-10.55993164 0.31699219 -10.55993164 0.31699219 -9.53710938 0.2578125 C-6.35117459 0.08099154 -3.19184597 0 0 0 Z " fill="#AAA4A4" transform="translate(268,262)"/>
<path d="M0 0 C0.928125 0.20625 1.85625 0.4125 2.8125 0.625 C3.375 2.5625 3.375 2.5625 3.8125 4.625 C2.15621963 6.28128037 0.02624797 5.78733158 -2.25 5.875 C-7.90947997 6.3318851 -11.89027748 7.89858649 -16.1875 11.625 C-18.34212396 14.52419022 -18.34212396 14.52419022 -19.125 17.9375 C-20.13771561 21.45221889 -21.46300284 24.41116439 -23.1875 27.625 C-24.66712666 23.77797068 -23.63968278 21.37010297 -22.1875 17.625 C-21.92195312 16.83351563 -21.65640625 16.04203125 -21.3828125 15.2265625 C-19.97443428 12.16126874 -18.26794592 10.30631537 -15.875 7.9375 C-14.73611328 6.78701172 -14.73611328 6.78701172 -13.57421875 5.61328125 C-11.14548014 3.58999491 -9.13904131 2.67946582 -6.1875 1.625 C-3.1875 -0.375 -3.1875 -0.375 0 0 Z " fill="#C5BFBF" transform="translate(181.1875,256.375)"/>
<path d="M0 0 C0.33 1.32 0.66 2.64 1 4 C2.093125 4.2475 3.18625 4.495 4.3125 4.75 C8.24426521 6.08280176 9.00542548 6.54233938 11 10 C11.72023757 13.746352 11.70003412 17.24981722 11 21 C8.71281208 24.30131842 5.78536213 25.73821262 2 27 C2 25.35 2 23.7 2 22 C3.32 21.67 4.64 21.34 6 21 C6.08131463 19.56344146 6.13933559 18.1255517 6.1875 16.6875 C6.22230469 15.88699219 6.25710937 15.08648437 6.29296875 14.26171875 C6.18434168 11.94170087 6.18434168 11.94170087 4.67578125 10.26953125 C2.91230916 8.79254359 2.91230916 8.79254359 0 8 C0 5.36 0 2.72 0 0 Z " fill="#EB4149" transform="translate(91,115)"/>
<path d="M0 0 C7.59 0 15.18 0 23 0 C19.65153839 3.34846161 17.13724287 5.80969495 13 8 C9.125 7.75 9.125 7.75 6 7 C6 6.34 6 5.68 6 5 C5.34 5 4.68 5 4 5 C4 4.34 4 3.68 4 3 C2.68 2.34 1.36 1.68 0 1 C0 0.67 0 0.34 0 0 Z " fill="#C3BDBD" transform="translate(290,318)"/>
<path d="M0 0 C0.42810099 5.22283205 0.42810099 5.22283205 0 8 C-3.43339059 11.22530631 -7.3750833 11.83182121 -12 12 C-14.4375 10.5625 -14.4375 10.5625 -16 9 C-15.67 6.69 -15.34 4.38 -15 2 C-14.11248047 2.16048828 -14.11248047 2.16048828 -13.20703125 2.32421875 C-7.96726247 3.15806574 -7.96726247 3.15806574 -3 1.5625 C-1 0 -1 0 0 0 Z " fill="#E7E0E0" transform="translate(20,262)"/>
<path d="M0 0 C4.29 0 8.58 0 13 0 C11.63875 1.5778125 11.63875 1.5778125 10.25 3.1875 C9.16661792 4.45829178 8.08328316 5.7291239 7 7 C6.21625 7.9075 5.4325 8.815 4.625 9.75 C2.70725472 11.94276455 2.70725472 11.94276455 3 15 C2.01 15.66 1.02 16.32 0 17 C0 11.39 0 5.78 0 0 Z " fill="#ABA5A5" transform="translate(72,297)"/>
<path d="M0 0 C3.63 0 7.26 0 11 0 C11.1953125 6.0546875 11.1953125 6.0546875 11 8 C9 10 9 10 6.8359375 10.1953125 C4.55729167 10.13020833 2.27864583 10.06510417 0 10 C0 6.7 0 3.4 0 0 Z " fill="#858181" transform="translate(300,297)"/>
<path d="M0 0 C2.62187494 1.04874998 3.79371361 1.64931313 5.25 4.125 C5.4975 4.74375 5.745 5.3625 6 6 C5.01 6.495 5.01 6.495 4 7 C4.33 7.99 4.66 8.98 5 10 C3.329375 10.4640625 3.329375 10.4640625 1.625 10.9375 C-1.7945155 11.82326483 -1.7945155 11.82326483 -4 13 C-4 13.99 -4 14.98 -4 16 C-4.99 16.66 -5.98 17.32 -7 18 C-8.65 16.35 -10.3 14.7 -12 13 C-11.67 12.01 -11.34 11.02 -11 10 C-10.01 11.32 -9.02 12.64 -8 14 C-6.9986012 10.99580359 -6.48578543 8.12290635 -6 5 C-3.08517222 4.19032562 -1.53886783 3.78154007 1.3125 4.9375 C1.869375 5.288125 2.42625 5.63875 3 6 C1.515 3.03 1.515 3.03 0 0 Z " fill="#DBD4D4" transform="translate(62,250)"/>
<path d="M0 0 C1.875 1.8125 1.875 1.8125 3 4 C3 4.99 3 5.98 3 7 C0.36 6.67 -2.28 6.34 -5 6 C-5.12375 6.9075 -5.2475 7.815 -5.375 8.75 C-5.92109677 11.58970323 -6.57263803 13.52590591 -8 16 C-9.70840281 14.36587557 -10.93453047 13.13093906 -12 11 C-12.039992 9.00039988 -12.04346799 6.99952758 -12 5 C-10.68 4.34 -9.36 3.68 -8 3 C-8 2.34 -8 1.68 -8 1 C-5.17116253 -0.41441874 -3.12623255 -0.31900332 0 0 Z " fill="#EDE6E6" transform="translate(62,249)"/>
<path d="M0 0 C14.01679351 -0.24495367 14.01679351 -0.24495367 19 4 C17.783125 4.020625 16.56625 4.04125 15.3125 4.0625 C12.55316782 4.37617186 11.3522291 4.65195415 9.35546875 6.625 C8.14471077 8.35565118 7.06217605 10.17438492 6 12 C2.64521544 8.91006686 0.20758194 6.46805317 -1 2 C-0.67 1.34 -0.34 0.68 0 0 Z " fill="#AAA5A5" transform="translate(112,262)"/>
<path d="M0 0 C0 0.33 0 0.66 0 1 C-3.3 1.66 -6.6 2.32 -10 3 C-10 4.65 -10 6.3 -10 8 C-7.08235 9.9451 -5.37462715 10.45276317 -2 11 C-2 11.99 -2 12.98 -2 14 C-5.04302358 14.2535853 -6.60646231 14.24049526 -9.25 12.625 C-11 11 -11 11 -12 9 C-11.5206753 13.31392226 -10.2542015 15.16569547 -7 18 C-9.86724686 17.42655063 -10.8614515 17.1385485 -13 15 C-14.98 15.99 -14.98 15.99 -17 17 C-16.34 15.35 -15.68 13.7 -15 12 C-16.65 12.66 -18.3 13.32 -20 14 C-20 12.68 -20 11.36 -20 10 C-18.02 10 -16.04 10 -14 10 C-15.90884692 5.45829004 -15.90884692 5.45829004 -18 1 C-14.125 2.875 -14.125 2.875 -13 4 C-12.2884375 3.01 -12.2884375 3.01 -11.5625 2 C-7.85124437 -0.89658976 -4.54602793 -0.34969446 0 0 Z " fill="#ECE4E4" transform="translate(135,124)"/>
<path d="M0 0 C0.99 0.495 0.99 0.495 2 1 C2.51827821 3.46409467 2.89792957 5.81907144 3.1875 8.3125 C3.27354492 9.0336499 3.35958984 9.7547998 3.44824219 10.49780273 C4.38413935 19.26746986 3.8557478 27.62313978 1 36 C0.67 36 0.34 36 0 36 C0 24.12 0 12.24 0 0 Z " fill="#A7A2A2" transform="translate(135,266)"/>
<path d="M0 0 C0.33 0 0.66 0 1 0 C1.05392397 2.77109307 1.09363455 5.54113818 1.125 8.3125 C1.14175781 9.09818359 1.15851562 9.88386719 1.17578125 10.69335938 C1.18222656 11.45068359 1.18867187 12.20800781 1.1953125 12.98828125 C1.20578613 13.68477783 1.21625977 14.38127441 1.22705078 15.09887695 C1 17 1 17 -1 20 C-1.38499891 21.65549531 -1.72793135 23.3222433 -2 25 C-3.85776765 21.86501708 -4.20140476 19.62528568 -4 16 C-4.33 16 -4.66 16 -5 16 C-5 12.7 -5 9.4 -5 6 C-4.34 6 -3.68 6 -3 6 C-2.690625 5.38125 -2.38125 4.7625 -2.0625 4.125 C-1.375 2.75 -0.6875 1.375 0 0 Z " fill="#A29D9D" transform="translate(60,271)"/>
<path d="M0 0 C1.77049689 -0.05410687 3.54146849 -0.09284119 5.3125 -0.125 C6.29863281 -0.14820313 7.28476562 -0.17140625 8.30078125 -0.1953125 C11 0 11 0 14 2 C14.33 3.32 14.66 4.64 15 6 C9.06 6 3.12 6 -3 6 C-3.33 5.34 -3.66 4.68 -4 4 C-3.01 4 -2.02 4 -1 4 C-0.67 2.68 -0.34 1.36 0 0 Z " fill="#B8B3B3" transform="translate(291,260)"/>
<path d="M0 0 C3.31686552 0.01786463 3.9727453 0.14069624 6.6875 2.3125 C7.1825 2.9725 7.6775 3.6325 8.1875 4.3125 C7.8575 4.9725 7.5275 5.6325 7.1875 6.3125 C4.5475 5.9825 1.9075 5.6525 -0.8125 5.3125 C-0.8125 5.9725 -0.8125 6.6325 -0.8125 7.3125 C-0.1525 7.6425 0.5075 7.9725 1.1875 8.3125 C1.1875 9.3025 1.1875 10.2925 1.1875 11.3125 C-1.1875 11 -1.1875 11 -3.8125 10.3125 C-5.8125 7.3125 -5.8125 7.3125 -5.5 4.1875 C-4.58858142 0.37611323 -4.58858142 0.37611323 0 0 Z " fill="#E8E2E2" transform="translate(310.8125,248.6875)"/>
<path d="M0 0 C4.69169564 1.74788661 7.71406567 4.24464648 11 8 C12.17666109 11.52998328 12.02013769 14.13637416 11.87890625 17.85546875 C11.85529526 18.51710526 11.83168427 19.17874176 11.80735779 19.86042786 C11.73090143 21.96968002 11.64680043 24.0785482 11.5625 26.1875 C11.5092612 27.61912196 11.45652093 29.05076254 11.40429688 30.48242188 C11.27531118 33.98851576 11.13946876 37.49430571 11 41 C10.67 41 10.34 41 10 41 C9.99589111 40.09233887 9.99178223 39.18467773 9.98754883 38.24951172 C9.96047347 34.86054374 9.91129422 31.47335887 9.84741211 28.08496094 C9.82430885 26.62250818 9.80985442 25.15989085 9.80444336 23.69726562 C9.79509602 21.58620576 9.75399179 19.47770634 9.70703125 17.3671875 C9.6913208 16.09987793 9.67561035 14.83256836 9.65942383 13.52685547 C8.79802313 8.91974904 7.26257879 7.308972 4 4 C-0.05788894 1.33338727 -4.13635934 1.97124133 -8.79296875 2.3203125 C-11.1757546 2.77596399 -11.1757546 2.77596399 -12.11328125 4.9921875 C-12.55220703 5.98605469 -12.55220703 5.98605469 -13 7 C-13.99 7.33 -14.98 7.66 -16 8 C-13.43374988 0.81449966 -6.92291624 -1.13763353 0 0 Z " fill="#982227" transform="translate(224,265)"/>
<path d="M0 0 C2.64 0 5.28 0 8 0 C8.1953125 2.05078125 8.390625 4.1015625 8.5859375 6.15234375 C8.72257812 6.76207031 8.85921875 7.37179687 9 8 C9.66 8.33 10.32 8.66 11 9 C7.37 9 3.74 9 0 9 C0 6.03 0 3.06 0 0 Z " fill="#7E7878" transform="translate(300,277)"/>
<path d="M0 0 C1.13566406 -0.02578125 2.27132812 -0.0515625 3.44140625 -0.078125 C6.4375 0.25 6.4375 0.25 8.296875 1.62890625 C9.59899691 3.47952472 10.05511826 5.03218592 10.4375 7.25 C7.81435298 6.74554865 6.04144745 6.02497014 3.6875 4.6875 C-0.26469395 2.93941422 -3.30870365 2.47889349 -7.5625 3.25 C-11.49872829 5.29100726 -14.04459259 6.99985925 -15.5625 11.25 C-16.2225 11.25 -16.8825 11.25 -17.5625 11.25 C-16.16735497 6.81090219 -14.08554189 4.26975019 -10.5625 1.25 C-7.10943673 0.01950975 -3.63898076 0.04967892 0 0 Z " fill="#AFA9A9" transform="translate(223.5625,262.75)"/>
<path d="M0 0 C2.27057377 -0.05398987 4.54151288 -0.09278742 6.8125 -0.125 C8.07707031 -0.14820312 9.34164062 -0.17140625 10.64453125 -0.1953125 C14 0 14 0 17 2 C14.7915684 2 12.58280589 1.99006681 10.375 1.9375 C7.98161765 1.83272059 7.98161765 1.83272059 6 3 C6 2.34 6 1.68 6 1 C4.35 1 2.7 1 1 1 C1 6.28 1 11.56 1 17 C2.65 17 4.3 17 6 17 C6 13.37 6 9.74 6 6 C6.33 6 6.66 6 7 6 C7 9.96 7 13.92 7 18 C4.69 18 2.38 18 0 18 C-0.33 16.68 -0.66 15.36 -1 14 C-1.99 14.495 -1.99 14.495 -3 15 C-3 11.04 -3 7.08 -3 3 C-2.01 3.495 -2.01 3.495 -1 4 C-0.67 2.68 -0.34 1.36 0 0 Z " fill="#D92931" transform="translate(230,124)"/>
<path d="M0 0 C0.99 0 1.98 0 3 0 C3 4.95 3 9.9 3 15 C-1 14 -1 14 -3 11 C-3.046875 8.80859375 -3.046875 8.80859375 -2.75 6.4375 C-2.66234375 5.65246094 -2.5746875 4.86742187 -2.484375 4.05859375 C-2 2 -2 2 0 0 Z " fill="#FAF3F3" transform="translate(332,251)"/>
<path d="M0 0 C2.8125 -0.3125 2.8125 -0.3125 6 0 C8.0625 2.0625 8.0625 2.0625 9 5 C8.32093825 7.60845942 7.27677795 9.58830831 6 12 C5.01 12 4.02 12 3 12 C1.03957628 7.67073094 0 4.71558567 0 0 Z " fill="#E8E0E0" transform="translate(270,249)"/>
<path d="M0 0 C0.66 0 1.32 0 2 0 C2.18543822 19.69765979 2.18543822 19.69765979 1.0234375 28.5546875 C0.99566218 31.45257905 1.77774165 33.39686962 3 36 C1.68 37.32 0.36 38.64 -1 40 C-1.17303482 26.48405801 -1.17303482 26.48405801 -0.5 21.6875 C0.46980152 14.53009159 0.0744612 7.2061899 0 0 Z " fill="#C3BDBD" transform="translate(316,277)"/>
<path d="M0 0 C0.33 1.65 0.66 3.3 1 5 C-3.62 5 -8.24 5 -13 5 C-13 4.34 -13 3.68 -13 3 C-8.1942374 -0.17180332 -5.81427302 -1.70173845 0 0 Z M-13 6 C-14.28650706 6.69710731 -15.57940665 7.38242876 -16.875 8.0625 C-17.95394531 8.63677734 -17.95394531 8.63677734 -19.0546875 9.22265625 C-19.69664062 9.47917969 -20.33859375 9.73570312 -21 10 C-21.66 9.67 -22.32 9.34 -23 9 C-17.37755102 4.54081633 -17.37755102 4.54081633 -13 6 Z " fill="#CCC6C6" transform="translate(263,255)"/>
<path d="M0 0 C0.66 1.32 1.32 2.64 2 4 C3.32 4 4.64 4 6 4 C6.33 5.32 6.66 6.64 7 8 C8.32 7.34 9.64 6.68 11 6 C10.67 6.99 10.34 7.98 10 9 C3.73 9 -2.54 9 -9 9 C-8.34 7.35 -7.68 5.7 -7 4 C-6.071875 4.2784375 -6.071875 4.2784375 -5.125 4.5625 C-2.95839822 5.23686176 -2.95839822 5.23686176 -1 4 C-0.34786708 1.97536745 -0.34786708 1.97536745 0 0 Z " fill="#B4AFAF" transform="translate(73,257)"/>
<path d="M0 0 C0.5625 1.9375 0.5625 1.9375 1 4 C-1.13112021 6.13112021 -6.28220649 5.39927309 -9.27734375 5.51757812 C-13.24159136 5.72396823 -16.41247322 6.28271489 -20 8 C-20 7.01 -20 6.02 -20 5 C-13.76023878 1.6624533 -9.07491245 0.73302217 -2 1 C-1.34 1.33 -0.68 1.66 0 2 C0 1.34 0 0.68 0 0 Z " fill="#BEB8B8" transform="translate(264,258)"/>
<path d="M0 0 C2.0625 0.25 2.0625 0.25 4 1 C5.60725635 4.21451269 5.05748185 7.43612536 5 11 C2.69 11 0.38 11 -2 11 C-2.05399736 9.54207116 -2.09279177 8.08357288 -2.125 6.625 C-2.15980469 5.40683594 -2.15980469 5.40683594 -2.1953125 4.1640625 C-2 2 -2 2 0 0 Z " fill="#F0E9E9" transform="translate(174,128)"/>
<path d="M0 0 C2.69082872 0.17635452 5.32851446 0.61835921 8 1 C7.01 1.66 6.02 2.32 5 3 C3.68 2.67 2.36 2.34 1 2 C1 7.28 1 12.56 1 18 C2.32 18 3.64 18 5 18 C5 14.04 5 10.08 5 6 C6.32 5.67 7.64 5.34 9 5 C8.34 5.66 7.68 6.32 7 7 C6.53603307 9.89223503 6.53603307 9.89223503 6.375 13.125 C6.30023438 14.22070312 6.22546875 15.31640625 6.1484375 16.4453125 C6.09945312 17.28835937 6.05046875 18.13140625 6 19 C3.69 19 1.38 19 -1 19 C-1.02683987 16.02077407 -1.04676037 13.04178705 -1.0625 10.0625 C-1.07087891 9.21236328 -1.07925781 8.36222656 -1.08789062 7.48632812 C-1.09111328 6.67744141 -1.09433594 5.86855469 -1.09765625 5.03515625 C-1.10289307 4.2862915 -1.10812988 3.53742676 -1.11352539 2.76586914 C-1 1 -1 1 0 0 Z " fill="#EDE6E6" transform="translate(87,7)"/>
<path d="M0 0 C2.475 0.495 2.475 0.495 5 1 C6.52491998 4.04983996 6.23562548 6.6423369 6 10 C4.6875 11.9375 4.6875 11.9375 3 13 C2.01 13 1.02 13 0 13 C0 8.71 0 4.42 0 0 Z " fill="#E42C34" transform="translate(92,124)"/>
<path d="M0 0 C0.33 0 0.66 0 1 0 C1.33 1.65 1.66 3.3 2 5 C2.66 3.35 3.32 1.7 4 0 C4.33 0 4.66 0 5 0 C5.37068304 6.54873369 5.37068304 6.54873369 3.5625 8.75 C2.7890625 9.36875 2.7890625 9.36875 2 10 C1.67 10.99 1.34 11.98 1 13 C-0.98 13.33 -2.96 13.66 -5 14 C-5 13.01 -5 12.02 -5 11 C-6.32 10.67 -7.64 10.34 -9 10 C-8.67 8.35 -8.34 6.7 -8 5 C-7.01 4.67 -6.02 4.34 -5 4 C-4.67 6.31 -4.34 8.62 -4 11 C-3.01 10.67 -2.02 10.34 -1 10 C-0.67 6.7 -0.34 3.4 0 0 Z " fill="#BAB4B4" transform="translate(92,255)"/>
<path d="M0 0 C3 1 3 1 5 3 C5.33 3 5.66 3 6 3 C6 6.3 6 9.6 6 13 C5.34 13 4.68 13 4 13 C3.443125 13.9590625 3.443125 13.9590625 2.875 14.9375 C0.39044075 17.67051518 -1.47539061 17.75383071 -5.05859375 18.05078125 C-7.46288427 17.98789236 -9.04119471 17.38748708 -11 16 C-10.67 15.34 -10.34 14.68 -10 14 C-9.34 14.33 -8.68 14.66 -8 15 C-3.95300854 15.41206904 -3.95300854 15.41206904 0 15 C2.08216876 12.6450037 2.08216876 12.6450037 3 10 C1.35 10.33 -0.3 10.66 -2 11 C-2 10.34 -2 9.68 -2 9 C-0.02 9 1.96 9 4 9 C4 8.34 4 7.68 4 7 C2.02 7 0.04 7 -2 7 C-1.67 6.34 -1.34 5.68 -1 5 C0.32 5.33 1.64 5.66 3 6 C1.515 3.03 1.515 3.03 0 0 Z " fill="#ECE5E5" transform="translate(207,125)"/>
<path d="M0 0 C1.32 0 2.64 0 4 0 C4 5.28 4 10.56 4 16 C2.68 16 1.36 16 0 16 C0 10.72 0 5.44 0 0 Z " fill="#FEF7F7" transform="translate(141,125)"/>
<path d="M0 0 C1.32 0 2.64 0 4 0 C4 5.28 4 10.56 4 16 C2.68 16 1.36 16 0 16 C0 10.72 0 5.44 0 0 Z " fill="#FDF6F6" transform="translate(322,9)"/>
<path d="M0 0 C0.54398437 0.24105469 1.08796875 0.48210937 1.6484375 0.73046875 C1.9784375 2.05046875 2.3084375 3.37046875 2.6484375 4.73046875 C1.8028125 4.60671875 0.9571875 4.48296875 0.0859375 4.35546875 C-4.24408732 4.82783509 -5.73022214 6.43065488 -8.73828125 9.41796875 C-10.3515625 10.73046875 -10.3515625 10.73046875 -13.3515625 10.73046875 C-14.3415625 11.22546875 -14.3415625 11.22546875 -15.3515625 11.73046875 C-13.82233353 7.74547797 -11.37207022 5.9077043 -7.9765625 3.41796875 C-7.02007812 2.69996094 -6.06359375 1.98195313 -5.078125 1.2421875 C-2.3515625 -0.26953125 -2.3515625 -0.26953125 0 0 Z " fill="#C8C2C2" transform="translate(282.3515625,314.26953125)"/>
<path d="M0 0 C1.65 0.33 3.3 0.66 5 1 C5 7.27 5 13.54 5 20 C2.69 20 0.38 20 -2 20 C-2 19.67 -2 19.34 -2 19 C-0.02 19 1.96 19 4 19 C4 13.39 4 7.78 4 2 C2.68 2 1.36 2 0 2 C0.061875 3.27875 0.12375 4.5575 0.1875 5.875 C0.29296875 8.0546875 0.29296875 8.0546875 0 10 C-0.99 10.66 -1.98 11.32 -3 12 C-3.99 10.68 -4.98 9.36 -6 8 C-5.01 8 -4.02 8 -3 8 C-2.690625 6.865625 -2.38125 5.73125 -2.0625 4.5625 C-1 1 -1 1 0 0 Z " fill="#E6DEDE" transform="translate(322,248)"/>
<path d="M0 0 C1.2065625 0.0309375 1.2065625 0.0309375 2.4375 0.0625 C3.13449552 1.51631897 3.81983866 2.97572953 4.5 4.4375 C4.88285156 5.24960937 5.26570313 6.06171875 5.66015625 6.8984375 C5.91667969 7.61257813 6.17320313 8.32671875 6.4375 9.0625 C6.1075 9.7225 5.7775 10.3825 5.4375 11.0625 C4.7775 11.0625 4.1175 11.0625 3.4375 11.0625 C2.7775 10.0725 2.1175 9.0825 1.4375 8.0625 C-0.62175139 7.33867533 -0.62175139 7.33867533 -2.5625 7.0625 C-2.94383299 5.0710944 -3.27575582 3.06970923 -3.5625 1.0625 C-2.5625 0.0625 -2.5625 0.0625 0 0 Z " fill="#D1CACA" transform="translate(76.5625,253.9375)"/>
<path d="M0 0 C0.33 0 0.66 0 1 0 C1.4084748 6.29353767 0.79319505 12.25511905 -0.3125 18.4375 C-0.43020752 19.13552734 -0.54791504 19.83355469 -0.66918945 20.55273438 C-1.36499672 24.21028555 -1.92125587 26.73190559 -5 29 C-6.12758089 25.61725734 -5.81750262 24.23221777 -5.0625 20.8125 C-4.86785156 19.91144531 -4.67320312 19.01039063 -4.47265625 18.08203125 C-4.31667969 17.39496094 -4.16070312 16.70789063 -4 16 C-3.01 15.67 -2.02 15.34 -1 15 C-1.01160156 14.25234375 -1.02320313 13.5046875 -1.03515625 12.734375 C-1.04869141 11.25710938 -1.04869141 11.25710938 -1.0625 9.75 C-1.07410156 8.77546875 -1.08570313 7.8009375 -1.09765625 6.796875 C-1.01195577 4.34241322 -0.70706066 2.33831086 0 0 Z " fill="#D4CECE" transform="translate(322,281)"/>
<path d="M0 0 C0.99 0 1.98 0 3 0 C3.33 1.32 3.66 2.64 4 4 C5.24716797 3.85691406 5.24716797 3.85691406 6.51953125 3.7109375 C7.60621094 3.60007812 8.69289063 3.48921875 9.8125 3.375 C10.89144531 3.25898438 11.97039062 3.14296875 13.08203125 3.0234375 C16 3 16 3 19 5 C16.64561267 6.42944945 15.51967567 7.08661261 12.75 6.625 C12.1725 6.41875 11.595 6.2125 11 6 C10.34 7.32 9.68 8.64 9 10 C8.2575 9.38125 7.515 8.7625 6.75 8.125 C4.51198812 6.39562719 2.56260013 5.13893339 0 4 C0 2.68 0 1.36 0 0 Z " fill="#B6B1B1" transform="translate(265,262)"/>
<path d="M0 0 C4.70588235 0.70588235 4.70588235 0.70588235 6 2 C5.71269945 4.33944736 5.38063221 6.6739143 5 9 C3.125 9.625 3.125 9.625 1 10 C-1 8 -1 8 -1.1875 4.4375 C-1 1 -1 1 0 0 Z " fill="#F4ECEC" transform="translate(74,12)"/>
<path d="M0 0 C0.33 0 0.66 0 1 0 C1.05441656 1.89551022 1.09298035 3.7914792 1.125 5.6875 C1.14820313 6.74324219 1.17140625 7.79898437 1.1953125 8.88671875 C0.99621016 12.06041006 0.25471493 14.11035351 -1 17 C-1.43888925 19.20254027 -1.43888925 19.20254027 -1.625 21.3125 C-1.74875 22.529375 -1.8725 23.74625 -2 25 C-2.33 25 -2.66 25 -3 25 C-3.0875127 21.77100574 -3.14056146 18.54231884 -3.1875 15.3125 C-3.21263672 14.40048828 -3.23777344 13.48847656 -3.26367188 12.54882812 C-3.31798713 7.56992966 -3.34955169 4.00765 0 0 Z " fill="#ADA7A7" transform="translate(23,279)"/>
<path d="M0 0 C3.53571429 0.53571429 3.53571429 0.53571429 5 2 C4.71269945 4.33944736 4.38063221 6.6739143 4 9 C2.35 9.33 0.7 9.66 -1 10 C-2.38125018 7.23749964 -2.19079306 5.05268901 -2 2 C-1.34 1.34 -0.68 0.68 0 0 Z " fill="#F4ECEC" transform="translate(219,128)"/>
<path d="M0 0 C6.6 0 13.2 0 20 0 C17.04634958 2.95365042 14.35158329 3.96074239 10.17578125 4.08203125 C9.23089844 3.99308594 8.28601563 3.90414063 7.3125 3.8125 C6.35988281 3.73644531 5.40726562 3.66039062 4.42578125 3.58203125 C2 3 2 3 0 0 Z " fill="#B5AFAF" transform="translate(290,318)"/>
<path d="M0 0 C4.70588235 0.70588235 4.70588235 0.70588235 6 2 C6.1875 4.4375 6.1875 4.4375 6 7 C5.34 7.66 4.68 8.32 4 9 C1.375 8.625 1.375 8.625 -1 8 C-1.04241723 5.66705225 -1.04092937 3.33297433 -1 1 C-0.67 0.67 -0.34 0.34 0 0 Z " fill="#EDE6E6" transform="translate(10,254)"/>
<path d="M0 0 C0.33 1.32 0.66 2.64 1 4 C1.62648438 3.91621094 2.25296875 3.83242188 2.8984375 3.74609375 C3.71570313 3.64425781 4.53296875 3.54242187 5.375 3.4375 C6.18710937 3.33308594 6.99921875 3.22867187 7.8359375 3.12109375 C10 3 10 3 12 4 C11.67 4.99 11.34 5.98 11 7 C9.68 7 8.36 7 7 7 C7 6.34 7 5.68 7 5 C5.35 5 3.7 5 2 5 C1.67 5.66 1.34 6.32 1 7 C0.01 7.495 0.01 7.495 -1 8 C-1 7.01 -1 6.02 -1 5 C-2.27875 4.979375 -3.5575 4.95875 -4.875 4.9375 C-5.59429687 4.92589844 -6.31359375 4.91429687 -7.0546875 4.90234375 C-9.08185404 4.87350758 -9.08185404 4.87350758 -11 6 C-11 5.01 -11 4.02 -11 3 C-7.37 3 -3.74 3 0 3 C0 2.01 0 1.02 0 0 Z " fill="#E7E0E0" transform="translate(302,15)"/>
<path d="M0 0 C3.65612646 0.56248099 6.62721377 0.15210152 10.25 -0.5 C9.59 0.82 8.93 2.14 8.25 3.5 C7.26 3.5 6.27 3.5 5.25 3.5 C3.5484375 3.809375 3.5484375 3.809375 1.8125 4.125 C-1.70056078 4.49479587 -2.90767128 4.43278353 -5.75 2.5 C-5.75 1.84 -5.75 1.18 -5.75 0.5 C-2.75 -0.5 -2.75 -0.5 0 0 Z " fill="#D0CACA" transform="translate(37.75,322.5)"/>
<path d="M0 0 C1.125 3.75 1.125 3.75 0 6 C-2.31 6 -4.62 6 -7 6 C-7.66 4.68 -8.32 3.36 -9 2 C-5.5647952 -0.29013653 -4.014669 -0.17842973 0 0 Z " fill="#BCB7B7" transform="translate(313,260)"/>
<path d="M0 0 C1.6415049 3.2830098 0.51888624 6.42545033 0 10 C-1.65 9.67 -3.3 9.34 -5 9 C-5.33 6.36 -5.66 3.72 -6 1 C-4.02 0.67 -2.04 0.34 0 0 Z " fill="#A7A1A1" transform="translate(314,276)"/>
<path d="M0 0 C1.65 0.33 3.3 0.66 5 1 C5.625 2.8125 5.625 2.8125 6 5 C5.01 6.485 5.01 6.485 4 8 C2.35 7.67 0.7 7.34 -1 7 C-1.625 5.1875 -1.625 5.1875 -2 3 C-1.34 2.01 -0.68 1.02 0 0 Z " fill="#F3ECEC" transform="translate(187,135)"/>
<path d="M0 0 C2.97 0 5.94 0 9 0 C9 0.33 9 0.66 9 1 C5.7 1.33 2.4 1.66 -1 2 C-0.67 1.34 -0.34 0.68 0 0 Z M-4 2 C-3.01 2.33 -2.02 2.66 -1 3 C-1.7425 3.70125 -2.485 4.4025 -3.25 5.125 C-5.256616 7.22282582 -6.71089669 8.93028495 -8.25 11.3125 C-9.11625 12.6428125 -9.11625 12.6428125 -10 14 C-10.33 14 -10.66 14 -11 14 C-11.3841073 11.38807037 -11.40150173 9.62856826 -9.95703125 7.3671875 C-8.14567494 5.16806283 -6.57347501 3.2867375 -4 2 Z " fill="#BAB4B4" transform="translate(173,262)"/>
<path d="M0 0 C2.97 0 5.94 0 9 0 C3.375 6.75 3.375 6.75 0 9 C0 6.03 0 3.06 0 0 Z " fill="#938E8E" transform="translate(72,297)"/>
<path d="M0 0 C0.97556564 2.92669691 1.0606341 4.44061321 0.87890625 7.44921875 C0.83056641 8.29677734 0.78222656 9.14433594 0.73242188 10.01757812 C0.67634766 10.89865234 0.62027344 11.77972656 0.5625 12.6875 C0.51029297 13.58017578 0.45808594 14.47285156 0.40429688 15.39257812 C0.2747182 17.5954156 0.13975754 19.79778873 0 22 C-0.66 22 -1.32 22 -2 22 C-3.70159453 7.40318907 -3.70159453 7.40318907 0 0 Z " fill="#A49F9F" transform="translate(164,275)"/>
<path d="M0 0 C0.763125 0.20625 1.52625 0.4125 2.3125 0.625 C2.6425 1.615 2.9725 2.605 3.3125 3.625 C2.3225 5.11 2.3225 5.11 1.3125 6.625 C-3.4375 5.75 -3.4375 5.75 -5.6875 4.625 C-5.6875 3.635 -5.6875 2.645 -5.6875 1.625 C-2.6875 -0.375 -2.6875 -0.375 0 0 Z " fill="#D5CECE" transform="translate(45.6875,261.375)"/>
<path d="M0 0 C1.41377341 2.63904371 2.37240135 5.07120629 3 8 C3.99 7.67 4.98 7.34 6 7 C7.22520264 3.99152582 7.22520264 3.99152582 8 1 C8.33 1 8.66 1 9 1 C9.0984702 5.13574827 8.77403558 8.93631321 8 13 C6.68 12.67 5.36 12.34 4 12 C4 11.34 4 10.68 4 10 C3.01 9.67 2.02 9.34 1 9 C1 7.68 1 6.36 1 5 C0.34 5 -0.32 5 -1 5 C-0.67 3.35 -0.34 1.7 0 0 Z " fill="#D1CBCB" transform="translate(270,253)"/>
<path d="M0 0 C2.68973586 0.06051149 5.37428778 0.14771897 8.0625 0.25 C8.81466797 0.26417969 9.56683594 0.27835937 10.34179688 0.29296875 C15.94889324 0.53570019 19.32275726 1.89426113 24 5 C20.41173687 6.24209108 17.66530437 5.85783719 14 5 C13.01 4.34 12.02 3.68 11 3 C8.26127045 2.54227937 8.26127045 2.54227937 5.3125 2.375 C4.31863281 2.30023438 3.32476562 2.22546875 2.30078125 2.1484375 C1.54152344 2.09945313 0.78226562 2.05046875 0 2 C0 1.34 0 0.68 0 0 Z " fill="#BAB5B5" transform="translate(111,260)"/>
<path d="M0 0 C0 2.31 0 4.62 0 7 C-5.75 6.125 -5.75 6.125 -8 5 C-8 3.68 -8 2.36 -8 1 C-5.23735711 0.40267181 -2.83967231 0 0 0 Z " fill="#F6EFEF" transform="translate(157,142)"/>
<path d="M0 0 C0.66 0.33 1.32 0.66 2 1 C0.88625 1.6496875 0.88625 1.6496875 -0.25 2.3125 C-2.93902163 3.85529395 -2.93902163 3.85529395 -4.8125 5.59375 C-7.62761114 7.4034643 -9.4354301 7.3058775 -12.75 7.1875 C-14.22726563 7.14689453 -14.22726563 7.14689453 -15.734375 7.10546875 C-16.85585937 7.05326172 -16.85585937 7.05326172 -18 7 C-18.33 6.01 -18.66 5.02 -19 4 C-18.35933594 4.03480469 -17.71867188 4.06960938 -17.05859375 4.10546875 C-11.14551176 4.29052795 -7.24945469 3.73409099 -2 1 C-1.34 0.67 -0.68 0.34 0 0 Z " fill="#B3ACAC" transform="translate(233,314)"/>
<path d="M0 0 C0.66 0.33 1.32 0.66 2 1 C-1.0109292 3.59274459 -3.12945345 5.19895282 -7 6 C-7.78117188 6.18820312 -8.56234375 6.37640625 -9.3671875 6.5703125 C-14.23186956 7.64630137 -18.07038668 8.29726666 -23 7 C-23 6.34 -23 5.68 -23 5 C-22.10796875 5.03480469 -21.2159375 5.06960938 -20.296875 5.10546875 C-19.12640625 5.13253906 -17.9559375 5.15960938 -16.75 5.1875 C-15.58984375 5.22230469 -14.4296875 5.25710938 -13.234375 5.29296875 C-9.70965796 4.9737009 -8.59840962 4.27288179 -6 2 C-4.34450469 1.61500109 -2.6777567 1.27206865 -1 1 C-0.67 0.67 -0.34 0.34 0 0 Z " fill="#C1BBBB" transform="translate(236,315)"/>
<path d="M0 0 C1.35688365 3.08382647 0.90841398 4.27475805 -0.1875 7.5625 C-1.89083122 10.79295577 -2.91363322 12.19075051 -6 14 C-6.37058824 8.44117647 -6.37058824 8.44117647 -4.6875 6.4375 C-4.130625 5.963125 -3.57375 5.48875 -3 5 C-1.96642853 3.35394174 -0.95939668 1.69036558 0 0 Z " fill="#C2BCBC" transform="translate(141,300)"/>
<path d="M0 0 C1.26237731 2.52475462 1.09856404 4.31200466 1.0625 7.125 C1.05347656 8.03507812 1.04445313 8.94515625 1.03515625 9.8828125 C1.02355469 10.58148438 1.01195312 11.28015625 1 12 C-1.97 11.505 -1.97 11.505 -5 11 C-4.33333333 7.66666667 -3.66666667 4.33333333 -3 1 C-2.01 0.67 -1.02 0.34 0 0 Z " fill="#A8A1A2" transform="translate(314,296)"/>
<path d="M0 0 C2.97 0.33 5.94 0.66 9 1 C9.33 2.65 9.66 4.3 10 6 C7.69 6 5.38 6 3 6 C3.66 5.01 4.32 4.02 5 3 C2.36 3.33 -0.28 3.66 -3 4 C-3.33 3.34 -3.66 2.68 -4 2 C-2.68 2 -1.36 2 0 2 C0 1.34 0 0.68 0 0 Z " fill="#AAA5A5" transform="translate(296,260)"/>
<path d="M0 0 C0.66 0.66 1.32 1.32 2 2 C4.20932578 2.30383655 6.38551375 2.37772717 8.61328125 2.4609375 C11.80311807 3.18139164 13.58613771 4.85529403 16 7 C13.70760939 6.91321237 11.4160193 6.80504727 9.125 6.6875 C7.84882812 6.62949219 6.57265625 6.57148438 5.2578125 6.51171875 C3.64519531 6.25841797 3.64519531 6.25841797 2 6 C0 3 0 3 0 0 Z " fill="#D4CDCD" transform="translate(111,253)"/>
<path d="M0 0 C0.33 0 0.66 0 1 0 C1.33 9.24 1.66 18.48 2 28 C1.34 28 0.68 28 0 28 C-0.06058594 26.89140625 -0.12117188 25.7828125 -0.18359375 24.640625 C-0.26802951 23.1770718 -0.35267599 21.71353075 -0.4375 20.25 C-0.47681641 19.52039063 -0.51613281 18.79078125 -0.55664062 18.0390625 C-0.78496112 13.9274694 -0.78496112 13.9274694 -1.54101562 9.890625 C-2.37642633 6.4494439 -0.9463633 3.34010575 0 0 Z " fill="#F9CBCD" transform="translate(271,133)"/>
<path d="M0 0 C5.61 0 11.22 0 17 0 C17 3.3 17 6.6 17 10 C16.67 10 16.34 10 16 10 C16 7.69 16 5.38 16 3 C14.02 3 12.04 3 10 3 C10 2.34 10 1.68 10 1 C6.7 1 3.4 1 0 1 C0 0.67 0 0.34 0 0 Z " fill="#E7575E" transform="translate(167,139)"/>
<path d="M0 0 C0.66 0.33 1.32 0.66 2 1 C6.65275976 1.3052622 6.65275976 1.3052622 11 0 C10.125 3.875 10.125 3.875 9 5 C5.70387801 6.17718642 3.36138279 5.8403457 0 5 C-0.33 5.66 -0.66 6.32 -1 7 C-0.67 4.69 -0.34 2.38 0 0 Z " fill="#ECE5E5" transform="translate(5,22)"/>
<path d="M0 0 C0.33 0 0.66 0 1 0 C1.29162929 4.95769796 1.12940055 8.02806853 -2 12 C-2.66 12 -3.32 12 -4 12 C-4.75 9.875 -4.75 9.875 -5 7 C-3.51209453 4.42096386 -2.11387131 2.11387131 0 0 Z " fill="#B7B1B1" transform="translate(23,272)"/>
<path d="M0 0 C0 0.33 0 0.66 0 1 C-0.95261719 1.12117188 -1.90523437 1.24234375 -2.88671875 1.3671875 C-4.14097656 1.53476562 -5.39523438 1.70234375 -6.6875 1.875 C-7.92886719 2.03742188 -9.17023438 2.19984375 -10.44921875 2.3671875 C-13.93459367 2.85992621 -13.93459367 2.85992621 -16.76953125 4.1328125 C-19 5 -19 5 -22 4 C-14.75903687 -0.63421641 -8.44333791 -0.42691034 0 0 Z " fill="#B9B3B3" transform="translate(227,262)"/>
<path d="M0 0 C0.99 0.33 1.98 0.66 3 1 C3 1.66 3 2.32 3 3 C4.98 3 6.96 3 9 3 C9 3.66 9 4.32 9 5 C5.7 5.66 2.4 6.32 -1 7 C-1.04254356 5.00045254 -1.04080783 2.99958364 -1 1 C-0.67 0.67 -0.34 0.34 0 0 Z " fill="#FCF4F4" transform="translate(58,13)"/>
<path d="M0 0 C2.22471743 4.44943487 2.08398737 7.35862492 1.6875 12.125 C1.61499023 13.21748047 1.61499023 13.21748047 1.54101562 14.33203125 C1.1489279 19.70214421 1.1489279 19.70214421 0 22 C-0.66 21.67 -1.32 21.34 -2 21 C-1.01 10.605 -1.01 10.605 0 0 Z " fill="#C1BBBB" transform="translate(141,278)"/>
<path d="M0 0 C0.33 1.32 0.66 2.64 1 4 C-2.3 3.67 -5.6 3.34 -9 3 C-9 2.01 -9 1.02 -9 0 C-5.52176885 -1.15941038 -3.54104422 -0.70820884 0 0 Z " fill="#DAD3D3" transform="translate(263,255)"/>
<path d="M0 0 C2.1979075 3.49079427 1.81316196 5.06258422 1 9 C0.73848785 11.76663531 0.5887515 14.53790284 0.4375 17.3125 C0.39431641 18.05306641 0.35113281 18.79363281 0.30664062 19.55664062 C0.20129568 21.37091464 0.10021684 23.1854355 0 25 C-0.33 25 -0.66 25 -1 25 C-1.02886984 21.02084841 -1.04675406 17.04172347 -1.0625 13.0625 C-1.07087891 11.92619141 -1.07925781 10.78988281 -1.08789062 9.61914062 C-1.09111328 8.53955078 -1.09433594 7.45996094 -1.09765625 6.34765625 C-1.10289307 5.34742432 -1.10812988 4.34719238 -1.11352539 3.31665039 C-1 1 -1 1 0 0 Z " fill="#C2BCBC" transform="translate(18,280)"/>
<path d="M0 0 C0.99 0.33 1.98 0.66 3 1 C2.34 1.66 1.68 2.32 1 3 C0.62792646 5.71615864 0.62792646 5.71615864 0.5859375 8.8828125 C0.54726562 10.04941406 0.50859375 11.21601563 0.46875 12.41796875 C0.4378125 13.64128906 0.406875 14.86460937 0.375 16.125 C0.33632812 17.35605469 0.29765625 18.58710938 0.2578125 19.85546875 C0.1633001 22.90349376 0.07774506 25.95150862 0 29 C-0.33 29 -0.66 29 -1 29 C-1.02465881 25.03069011 -1.04284023 21.06140966 -1.05493164 17.09204102 C-1.05997057 15.74079614 -1.06680177 14.38955674 -1.07543945 13.03833008 C-1.08752419 11.09979566 -1.09269828 9.161222 -1.09765625 7.22265625 C-1.10289307 6.05484619 -1.10812988 4.88703613 -1.11352539 3.68383789 C-1 1 -1 1 0 0 Z " fill="#754042" transform="translate(176,276)"/>
<path d="M0 0 C3.33537489 1.11179163 4.63707344 2.47411298 7 5 C7.61875 4.175 8.2375 3.35 8.875 2.5 C9.57625 1.675 10.2775 0.85 11 0 C11.66 0 12.32 0 13 0 C11.44499019 3.81684226 8.96404505 6.19195732 6 9 C2 4.25 2 4.25 2 2 C1.34 2 0.68 2 0 2 C0 1.34 0 0.68 0 0 Z " fill="#722B2E" transform="translate(111,284)"/>
<path d="M0 0 C0.66 0 1.32 0 2 0 C2 3.3 2 6.6 2 10 C0.68 9.34 -0.64 8.68 -2 8 C-2.125 5.125 -2.125 5.125 -2 2 C-1.34 1.34 -0.68 0.68 0 0 Z " fill="#F4EDED" transform="translate(155,128)"/>
<path d="M0 0 C1.65 0 3.3 0 5 0 C4.8125 2.8125 4.8125 2.8125 4 6 C1.4375 7.875 1.4375 7.875 -1 9 C-0.835 8.071875 -0.67 7.14375 -0.5 6.1875 C0.07748388 3.04378647 0.07748388 3.04378647 0 0 Z " fill="#B7B2B2" transform="translate(56,267)"/>
<path d="M0 0 C0.66 0.33 1.32 0.66 2 1 C1.2884375 1.5878125 1.2884375 1.5878125 0.5625 2.1875 C-1.19922756 3.93074521 -1.19922756 3.93074521 -1.5 6.5 C-2.06207656 9.31038279 -2.83090949 10.20814262 -5 12 C-6.28317892 8.15046324 -6.06643637 5.05261865 -6 1 C-4.515 1.99 -4.515 1.99 -3 3 C-2.01 2.01 -1.02 1.02 0 0 Z " fill="#DDD6D6" transform="translate(289,250)"/>
<path d="M0 0 C1.231394 2.46278801 1.07159196 4.2795055 1 7 C-2.07322544 7.91058531 -4.80097361 8.08886184 -8 8 C-6.68 7.34 -5.36 6.68 -4 6 C-4.33 4.35 -4.66 2.7 -5 1 C-4.01 1.33 -3.02 1.66 -2 2 C-1.34 1.34 -0.68 0.68 0 0 Z " fill="#D4CECE" transform="translate(305,251)"/>
<path d="M0 0 C0.042721 1.66611905 0.04063832 3.33382885 0 5 C-1 6 -1 6 -3.5625 6.0625 C-4.7690625 6.0315625 -4.7690625 6.0315625 -6 6 C-6.66 4.68 -7.32 3.36 -8 2 C-1.125 0 -1.125 0 0 0 Z " fill="#DED7D7" transform="translate(16,264)"/>
<path d="M0 0 C2.7839183 1.39195915 2.97898997 3.15575779 4 6 C2.68 6.99 1.36 7.98 0 9 C-1.65 7.35 -3.3 5.7 -5 4 C-4.67 3.01 -4.34 2.02 -4 1 C-3.01 2.32 -2.02 3.64 -1 5 C-0.67 3.35 -0.34 1.7 0 0 Z " fill="#D4CDCD" transform="translate(55,259)"/>
<path d="M0 0 C2.97 0 5.94 0 9 0 C7.02 2.97 7.02 2.97 5 6 C3.31237149 4.3545622 1.6459651 2.68711423 0 1 C0 0.67 0 0.34 0 0 Z " fill="#7B7676" transform="translate(113,268)"/>
<path d="M0 0 C2.66666667 0.66666667 5.33333333 1.33333333 8 2 C8.33 1.34 8.66 0.68 9 0 C9 0.99 9 1.98 9 3 C8.34 3.66 7.68 4.32 7 5 C3.375 4.625 3.375 4.625 0 4 C0 2.68 0 1.36 0 0 Z " fill="#ECE5E5" transform="translate(310,11)"/>
<path d="M0 0 C0.33 0.99 0.66 1.98 1 3 C0.67 3.66 0.34 4.32 0 5 C-0.2165625 6.7634375 -0.2165625 6.7634375 -0.4375 8.5625 C-0.623125 9.696875 -0.80875 10.83125 -1 12 C-1.99 12.495 -1.99 12.495 -3 13 C-3 9.7 -3 6.4 -3 3 C-2.34 3 -1.68 3 -1 3 C-0.67 2.01 -0.34 1.02 0 0 Z " fill="#AEA9A9" transform="translate(58,274)"/>
<path d="M0 0 C5.94 0.99 5.94 0.99 12 2 C11.67 2.66 11.34 3.32 11 4 C8.03 4 5.06 4 2 4 C1.34 2.68 0.68 1.36 0 0 Z " fill="#949090" transform="translate(111,264)"/>
<path d="M0 0 C2.97 0 5.94 0 9 0 C9 0.66 9 1.32 9 2 C9.99 2.33 10.98 2.66 12 3 C8.41640884 4.24047386 5.66660232 3.79708746 2 3 C1.34 2.67 0.68 2.34 0 2 C0 1.34 0 0.68 0 0 Z " fill="#D0CACA" transform="translate(216,257)"/>
<path d="M0 0 C0.33 1.32 0.66 2.64 1 4 C0.06027344 3.87431641 0.06027344 3.87431641 -0.8984375 3.74609375 C-2.12433594 3.59333984 -2.12433594 3.59333984 -3.375 3.4375 C-4.59316406 3.28087891 -4.59316406 3.28087891 -5.8359375 3.12109375 C-8.04899186 2.81762672 -8.04899186 2.81762672 -10 4 C-7.53453745 -1.4592385 -5.69047474 -1.11335375 0 0 Z " fill="#D2CBCB" transform="translate(184,257)"/>
<path d="M0 0 C0.33 0 0.66 0 1 0 C1.33 1.65 1.66 3.3 2 5 C2.66 3.35 3.32 1.7 4 0 C4.33 0 4.66 0 5 0 C5.25 3.3125 5.25 3.3125 5 7 C3 8.9375 3 8.9375 1 10 C-0.60725635 6.78548731 -0.05748185 3.56387464 0 0 Z " fill="#CCC6C6" transform="translate(92,255)"/>
<path d="M0 0 C1.65 0 3.3 0 5 0 C4.67 1.65 4.34 3.3 4 5 C2.35 5 0.7 5 -1 5 C-0.67 3.35 -0.34 1.7 0 0 Z " fill="#D4CDCD" transform="translate(292,254)"/>
<path d="M0 0 C0.99 0 1.98 0 3 0 C3 2.97 3 5.94 3 9 C2.01 9 1.02 9 0 9 C0 6.03 0 3.06 0 0 Z " fill="#FEF6F6" transform="translate(174,130)"/>
<path d="M0 0 C2 1 2 1 3.125 3.6875 C3.98889074 6.9579435 4.16013991 9.63706182 4 13 C3.01 13 2.02 13 1 13 C0.67 8.71 0.34 4.42 0 0 Z " fill="#DB2A32" transform="translate(101,123)"/>
<path d="M0 0 C2.40034102 3.60051153 4.32187705 6.96144535 3.625 11.375 C3.41875 11.91125 3.2125 12.4475 3 13 C2.34 12.34 1.68 11.68 1 11 C0.01 11.495 0.01 11.495 -1 12 C-0.67 8.04 -0.34 4.08 0 0 Z " fill="#ECE5E5" transform="translate(283,9)"/>
<path d="M0 0 C0.66 0.33 1.32 0.66 2 1 C-2.55426184 3.66590937 -5.73946963 4.31563182 -11 4 C-11.33 3.01 -11.66 2.02 -12 1 C-11.07767578 1.01740234 -11.07767578 1.01740234 -10.13671875 1.03515625 C-8.92435547 1.04869141 -8.92435547 1.04869141 -7.6875 1.0625 C-6.88699219 1.07410156 -6.08648437 1.08570313 -5.26171875 1.09765625 C-2.83138666 1.09657855 -2.83138666 1.09657855 0 0 Z " fill="#B3ACAC" transform="translate(186,317)"/>
<path d="M0 0 C0.66 1.32 1.32 2.64 2 4 C2.99 3.67 3.98 3.34 5 3 C5 4.32 5 5.64 5 7 C2.6875 7.25 2.6875 7.25 0 7 C-1.8125 5 -1.8125 5 -3 3 C-2.01 2.01 -1.02 1.02 0 0 Z " fill="#CCC6C6" transform="translate(68,254)"/>
<path d="M0 0 C-1.5625 1.5625 -1.5625 1.5625 -4 3 C-7.75 2.6875 -7.75 2.6875 -11 2 C-11 1.34 -11 0.68 -11 0 C-9.54263913 -0.19491452 -8.08405407 -0.38069358 -6.625 -0.5625 C-5.81289063 -0.66691406 -5.00078125 -0.77132813 -4.1640625 -0.87890625 C-2 -1 -2 -1 0 0 Z " fill="#CCC6C6" transform="translate(307,323)"/>
<path d="M0 0 C0.7734375 0.2165625 0.7734375 0.2165625 1.5625 0.4375 C4.68509571 1.15809901 7.82550692 1.57266439 11 2 C9.8125 3.5625 9.8125 3.5625 8 5 C4.51967799 4.73897585 2.94903702 3.96602468 0 2 C0 1.34 0 0.68 0 0 Z " fill="#D2CBCB" transform="translate(214,322)"/>
<path d="M0 0 C3.96 0 7.92 0 12 0 C9.36966546 2.63033454 7.67293796 2.77962372 4 3 C2.68 2.01 1.36 1.02 0 0 Z " fill="#B1ABAB" transform="translate(31,318)"/>
<path d="M0 0 C1.32 0.33 2.64 0.66 4 1 C4.33 3.31 4.66 5.62 5 8 C2.525 7.01 2.525 7.01 0 6 C0 4.02 0 2.04 0 0 Z " fill="#D3CCCC" transform="translate(84,254)"/>
<path d="M0 0 C-2.58926331 2.58926331 -4.02705279 2.37398043 -7.625 2.625 C-8.62789062 2.69976562 -9.63078125 2.77453125 -10.6640625 2.8515625 C-11.82035156 2.92503906 -11.82035156 2.92503906 -13 3 C-13 2.34 -13 1.68 -13 1 C-11.39796533 0.63631108 -9.79325797 0.28438048 -8.1875 -0.0625 C-7.29417969 -0.25972656 -6.40085938 -0.45695312 -5.48046875 -0.66015625 C-3 -1 -3 -1 0 0 Z " fill="#C1BBBB" transform="translate(188,320)"/>
<path d="M0 0 C0.99 0 1.98 0 3 0 C3.66 2.97 4.32 5.94 5 9 C3.68 8.67 2.36 8.34 1 8 C0.67 5.36 0.34 2.72 0 0 Z " fill="#989292" transform="translate(308,277)"/>
<path d="M0 0 C0.99 0.66 1.98 1.32 3 2 C1.576875 2.86625 1.576875 2.86625 0.125 3.75 C-2.76134098 5.82816551 -3.84095741 6.75468075 -5 10 C-5.66 10 -6.32 10 -7 10 C-5.6062718 5.56541027 -3.39417765 3.12621626 0 0 Z " fill="#A19293" transform="translate(213,264)"/>
<path d="M0 0 C0.7425 0.61875 1.485 1.2375 2.25 1.875 C4.48801188 3.60437281 6.43739987 4.86106661 9 6 C5.92382812 6.29296875 5.92382812 6.29296875 2.84765625 6.5859375 C1.93306641 6.79089844 1.93306641 6.79089844 1 7 C0.67 7.66 0.34 8.32 0 9 C0 8.01 0 7.02 0 6 C0.66 5.67 1.32 5.34 2 5 C1.34 4.34 0.68 3.68 0 3 C0 2.01 0 1.02 0 0 Z " fill="#E9E2E2" transform="translate(148,136)"/>
<path d="M0 0 C2.76276177 0.52268466 5.3260876 1.10869587 8 2 C8.33 2.99 8.66 3.98 9 5 C4.545 4.01 4.545 4.01 0 3 C0 2.01 0 1.02 0 0 Z " fill="#EBE4E4" transform="translate(128,128)"/>
<path d="M0 0 C1.09898702 3.29696105 0.87124444 4.40494903 0.0625 7.6875 C-0.22947266 8.89986328 -0.22947266 8.89986328 -0.52734375 10.13671875 C-0.68332031 10.75160156 -0.83929688 11.36648438 -1 12 C-2.44810616 9.68719735 -3.12565635 8.58355661 -2.5390625 5.859375 C-2.23742187 5.16328125 -1.93578125 4.4671875 -1.625 3.75 C-1.32851562 3.04359375 -1.03203125 2.3371875 -0.7265625 1.609375 C-0.48679688 1.07828125 -0.24703125 0.5471875 0 0 Z " fill="#AAA5A5" transform="translate(164,275)"/>
<path d="M0 0 C2.475 0.99 2.475 0.99 5 2 C5 3.98 5 5.96 5 8 C2.21611025 6.29374499 1.14615794 5.52373261 0.25 2.3125 C0.1675 1.549375 0.085 0.78625 0 0 Z " fill="#B1A7A7" transform="translate(187,263)"/>
<path d="M0 0 C0.33 0.99 0.66 1.98 1 3 C1.66 3 2.32 3 3 3 C3.33 3.99 3.66 4.98 4 6 C3.01 6.33 2.02 6.66 1 7 C0.34 6.01 -0.32 5.02 -1 4 C-3.05925139 3.27617533 -3.05925139 3.27617533 -5 3 C-5 2.67 -5 2.34 -5 2 C-3.35 2 -1.7 2 0 2 C0 1.34 0 0.68 0 0 Z " fill="#C2BCBC" transform="translate(79,258)"/>
<path d="M0 0 C0.66 0.33 1.32 0.66 2 1 C-0.87164566 3.70272533 -2.30991841 4.94791837 -6.3125 5.25 C-7.199375 5.1675 -8.08625 5.085 -9 5 C-6.58496158 2.07653244 -4.68577153 1.58196393 -1 1 C-0.67 0.67 -0.34 0.34 0 0 Z " fill="#BAB4B4" transform="translate(236,315)"/>
<path d="M0 0 C0.33 0 0.66 0 1 0 C1 3.96 1 7.92 1 12 C0.01 12.495 0.01 12.495 -1 13 C-2.51403812 8.15507803 -1.36602172 4.7408989 0 0 Z " fill="#979292" transform="translate(60,276)"/>
<path d="M0 0 C0.5775 0.226875 1.155 0.45375 1.75 0.6875 C0.96625 0.77 0.1825 0.8525 -0.625 0.9375 C-3.3946618 1.39599401 -3.3946618 1.39599401 -4.375 3.6875 C-4.66375 4.3475 -4.9525 5.0075 -5.25 5.6875 C-6.24 6.0175 -7.23 6.3475 -8.25 6.6875 C-6.65594781 2.8352072 -4.57967475 -0.63606594 0 0 Z " fill="#A51C22" transform="translate(216.25,266.3125)"/>
<path d="M0 0 C1.32 0.66 2.64 1.32 4 2 C4 2.66 4 3.32 4 4 C4.66 4.33 5.32 4.66 6 5 C3.36 5 0.72 5 -2 5 C-1.34 3.35 -0.68 1.7 0 0 Z " fill="#A9A4A4" transform="translate(66,261)"/>
<path d="M0 0 C4 1 4 1 4 1 Z M0 1 C-0.33 1.99 -0.66 2.98 -1 4 C-3.0625 4.6875 -3.0625 4.6875 -5 5 C-5 4.01 -5 3.02 -5 2 C-3 1 -3 1 0 1 Z " fill="#BFB9B9" transform="translate(249,261)"/>
<path d="M0 0 C2.0625 0.4375 2.0625 0.4375 4 1 C3.67 1.99 3.34 2.98 3 4 C1.35 4.33 -0.3 4.66 -2 5 C-1.125 1.125 -1.125 1.125 0 0 Z " fill="#D8D1D1" transform="translate(103,254)"/>
<path d="M0 0 C0.33 0.66 0.66 1.32 1 2 C3.02463255 2.65213292 3.02463255 2.65213292 5 3 C4.67 3.66 4.34 4.32 4 5 C4.66 5.33 5.32 5.66 6 6 C4.35 6 2.7 6 1 6 C0.67 4.02 0.34 2.04 0 0 Z " fill="#C0BBBB" transform="translate(270,260)"/>
<path d="M0 0 C0.99 0.33 1.98 0.66 3 1 C3 2.32 3 3.64 3 5 C1.68 5 0.36 5 -1 5 C-0.67 3.35 -0.34 1.7 0 0 Z " fill="#FCF5F5" transform="translate(44,20)"/>
<path d="M0 0 C-0.33 0.99 -0.66 1.98 -1 3 C-2.98 3 -4.96 3 -7 3 C-7 2.34 -7 1.68 -7 1 C-4 0 -4 0 0 0 Z " fill="#C8C2C2" transform="translate(39,322)"/>
<path d="M0 0 C2.31 0 4.62 0 7 0 C6.67 1.65 6.34 3.3 6 5 C3.98079663 3.69593116 1.98075027 2.36176581 0 1 C0 0.67 0 0.34 0 0 Z " fill="#A29A9A" transform="translate(269,267)"/>
<path d="M0 0 C0.99 0 1.98 0 3 0 C2.67 1.65 2.34 3.3 2 5 C1.01 4.67 0.02 4.34 -1 4 C-0.67 2.68 -0.34 1.36 0 0 Z " fill="#E7E0E0" transform="translate(44,262)"/>
<path d="M0 0 C2.0625 0.4375 2.0625 0.4375 4 1 C3.67 2.65 3.34 4.3 3 6 C2.34 6 1.68 6 1 6 C1 5.01 1 4.02 1 3 C0.34 2.34 -0.32 1.68 -1 1 C-0.67 0.67 -0.34 0.34 0 0 Z " fill="#C5C0C0" transform="translate(310,260)"/>
<path d="M0 0 C2.475 0.495 2.475 0.495 5 1 C4.67 1.99 4.34 2.98 4 4 C2.68 4 1.36 4 0 4 C0 2.68 0 1.36 0 0 Z " fill="#EEE6E6" transform="translate(309,18)"/>
</svg>
